<?xml version="1.0" encoding="UTF-8" standalone="no"?>
<!-- Generator: Adobe Illustrator 15.1.0, SVG Export Plug-In . SVG Version: 6.00 Build 0)  -->

<svg
   xmlns:dc="http://purl.org/dc/elements/1.1/"
   xmlns:cc="http://creativecommons.org/ns#"
   xmlns:rdf="http://www.w3.org/1999/02/22-rdf-syntax-ns#"
   xmlns:svg="http://www.w3.org/2000/svg"
   xmlns="http://www.w3.org/2000/svg"
   xmlns:sodipodi="http://sodipodi.sourceforge.net/DTD/sodipodi-0.dtd"
   xmlns:inkscape="http://www.inkscape.org/namespaces/inkscape"
   version="1.1"
   id="Layer_1"
   x="0px"
   y="0px"
   width="551.386px"
   height="161.464px"
   viewBox="0 0 551.386 161.464"
   enable-background="new 0 0 551.386 161.464"
   xml:space="preserve"
   inkscape:version="0.91 r13725"
   sodipodi:docname="bridge.svg"
   inkscape:export-filename="C:\Users\aaron\Downloads\bridge.png"
   inkscape:export-xdpi="163.22504"
   inkscape:export-ydpi="163.22504"><metadata
     id="metadata149"><rdf:RDF><cc:Work
         rdf:about=""><dc:format>image/svg+xml</dc:format><dc:type
           rdf:resource="http://purl.org/dc/dcmitype/StillImage" /></cc:Work></rdf:RDF></metadata><defs
     id="defs147" /><sodipodi:namedview
     pagecolor="#ffffff"
     bordercolor="#666666"
     borderopacity="1"
     objecttolerance="10"
     gridtolerance="10"
     guidetolerance="10"
     inkscape:pageopacity="0"
     inkscape:pageshadow="2"
     inkscape:window-width="1920"
     inkscape:window-height="986"
     id="namedview145"
     showgrid="false"
     inkscape:zoom="2.2208465"
     inkscape:cx="270.3905"
     inkscape:cy="30.138005"
     inkscape:window-x="-4"
     inkscape:window-y="-4"
     inkscape:window-maximized="1"
     inkscape:current-layer="Layer_1" /><path
     style="fill:#7b7b7b"
     inkscape:connector-curvature="0"
     id="path5"
     d="m 546.032,15.272 0.1,-0.2 c -2.449,-1.449 -4.448,-2.199 -6.098,-2.199 -1.749,0 -3.349,1.2 -4.848,3.549 -1.649,2.599 -2.849,3.999 -3.549,4.248 -2.948,-4.798 -4.897,-7.197 -5.798,-7.197 -2.099,0 -4.647,2.399 -7.696,7.197 -2.449,3.849 -3.898,7.097 -4.448,9.646 l -0.25,-0.55 c -1.399,0.3 -2.849,1.349 -4.299,3.099 -1.049,1.25 -1.799,2.449 -2.249,3.499 -0.899,-0.65 -2.299,-2.049 -4.248,-4.198 -1.449,-1.6 -2.499,-2.399 -3.249,-2.399 -0.649,0 -1.449,1.149 -2.299,3.398 -0.75,1.949 -1.1,3.249 -1.1,3.798 l 0,0.6 c -1.549,-2 -3.748,-6.397 -6.598,-13.145 -2.049,-4.898 -4.098,-7.347 -6.047,-7.347 -1.999,0 -4.148,2.149 -6.498,6.397 -2.749,4.948 -3.548,10.046 -2.499,15.293 -0.799,-1.349 -1.399,-2.249 -1.849,-2.649 -0.25,-0.25 -0.5,-0.35 -0.85,-0.35 -0.15,0 -1.05,0.7 -2.699,2.149 -1.6,1.399 -2.599,2.099 -2.999,2.099 l 108.908,0 c -0.799,-0.75 -1.699,-1.599 -2.698,-2.549 -2.149,-2.049 -3.199,-3.898 -3.199,-5.598 0,-0.8 0.55,-2.199 1.6,-4.148 0.05,-0.05 0.1,-0.15 0.149,-0.2 -0.999,-1.349 -1.999,-2.049 -2.948,-2.049 -0.649,0.4 -1.399,0.8 -2.249,1.199 -1.649,0.8 -3.099,1.2 -4.349,1.2 -0.8,-1.35 -2.449,-3.199 -4.897,-5.448 -2.35,-2.149 -4.698,-3.948 -7.147,-5.448 l -0.1,0.1 c -0.351,-0.25 -0.7,-0.5 -1.05,-0.75 -0.651,-0.346 -1.301,-0.696 -1.95,-1.047 l 0,0 z m -4.349,16.744 0.15,-0.45 0,0.6 c -0.049,-0.05 -0.1,-0.1 -0.15,-0.15 l 0,0 z" /><path
     style="fill:#7b7b7b"
     inkscape:connector-curvature="0"
     id="path7"
     d="m 424.581,12.274 c -3.549,-0.25 -9.347,-0.7 -17.394,-1.299 -1.149,-0.05 -2.299,-0.15 -3.498,-0.25 l 0,-0.05 -7.098,0.05 c -2.749,0.1 -7.197,0.35 -13.444,0.8 -6.197,0.45 -9.796,0.699 -10.846,0.75 l 0.1,2.399 c 0,0.55 0.2,0.8 0.65,0.85 0.449,0.05 1.648,-0.1 3.698,-0.399 -0.101,4.148 -0.2,7.646 -0.25,10.445 -6.447,5.348 -12.895,10.196 -19.343,14.444 l 7.098,0 c 4.049,-2.849 8.097,-5.848 12.146,-9.096 0,0.55 0,1 0,1.399 0,0.15 0,0.25 -0.051,0.4 0,0.25 0,0.4 0.051,0.45 -0.051,0.15 -0.051,0.2 -0.051,0.25 -0.05,0.1 -0.05,0.2 -0.05,0.3 -0.449,1.849 -0.85,3.849 -1.299,5.897 -0.2,0.15 -0.4,0.25 -0.55,0.4 l 52.028,0 c -0.1,-0.6 -0.199,-1.199 -0.3,-1.849 -0.149,-0.8 -0.25,-1.599 -0.35,-2.449 1.149,1.449 2.249,2.898 3.398,4.298 l 6.248,0 c -3.648,-4.398 -7.247,-8.996 -10.696,-13.744 -0.05,-0.85 -0.149,-1.7 -0.199,-2.599 -0.051,-0.45 -0.051,-0.95 -0.101,-1.45 -0.3,-4.348 -0.55,-6.547 -0.699,-6.697 0.25,-0.05 0.55,-0.05 0.8,-0.1 0.999,-0.1 1.799,-0.1 2.349,0.05 0.75,0.1 1.199,0.2 1.399,0.35 l 0.4,-3.298 c -0.248,-0.002 -1.647,-0.102 -4.146,-0.252 l 0,0 z" /><path
     style="fill:#7b7b7b"
     inkscape:connector-curvature="0"
     id="path9"
     d="m 463.964,38.813 c -1.249,-0.85 -1.949,-1.25 -1.999,-1.25 -1.149,0 -2.049,0.799 -2.649,2.449 l 6.647,0 c -0.099,10e-4 -0.749,-0.399 -1.999,-1.199 l 0,0 z" /><path
     style="fill:#7b7b7b"
     inkscape:connector-curvature="0"
     id="path11"
     d="m 156.637,10.475 -7.097,-0.05 0,0.05 c -1.199,0.1 -2.349,0.2 -3.448,0.25 -13.745,1 -20.942,1.5 -21.591,1.549 l 0.399,3.299 c 0.2,-0.15 0.65,-0.25 1.399,-0.35 0.75,-0.15 1.799,-0.15 3.149,0.05 -0.15,0.15 -0.4,2.349 -0.7,6.698 -0.15,2.099 -0.25,3.948 -0.4,5.547 -3.249,4.349 -6.647,8.497 -10.096,12.495 l 6.297,0 c 0.899,-1.1 1.799,-2.199 2.699,-3.299 -0.15,1.15 -0.3,2.25 -0.45,3.299 l 53.829,0 c -0.85,-0.55 -1.75,-1.1 -2.599,-1.649 -0.35,-1.699 -0.75,-3.349 -1.1,-4.898 0,-0.1 0,-0.2 -0.05,-0.3 0,-0.05 0,-0.1 -0.05,-0.25 0.05,-0.05 0.05,-0.2 0.05,-0.45 -0.05,-0.15 -0.05,-0.25 -0.05,-0.4 0,-0.55 0,-1.2 0,-1.999 4.749,3.548 9.546,6.897 14.294,9.946 l 7.097,0 c -7.147,-4.498 -14.344,-9.596 -21.491,-15.244 -0.05,-2.649 -0.15,-5.948 -0.25,-9.896 2.049,0.3 3.249,0.45 3.699,0.399 0.45,-0.05 0.649,-0.3 0.649,-0.85 l 0.1,-2.399 c -1.05,-0.05 -4.648,-0.3 -10.846,-0.75 -6.246,-0.449 -10.694,-0.698 -13.443,-0.798 l 0,0 z" /><path
     style="fill:#7b7b7b"
     inkscape:connector-curvature="0"
     id="path13"
     d="m 198.221,40.013 -7.097,0 c 59.826,38.685 117.503,38.685 173.131,0 l -7.098,0 c -51.679,34.186 -104.658,34.186 -158.936,0 l 0,0 z" /><path
     style="fill:#7b7b7b"
     inkscape:connector-curvature="0"
     id="path15"
     d="m 124.55,40.013 -6.297,0 c -7.647,8.946 -15.744,17.093 -24.291,24.49 -0.8,-3.299 -1.899,-5.448 -3.349,-6.497 -0.7,0.699 -1.799,3.848 -3.249,9.446 -0.2,0.75 -0.4,1.5 -0.55,2.149 l 8.197,0 c 10.447,-8.747 20.293,-18.593 29.539,-29.588 l 0,0 z" /><path
     style="fill:#7b7b7b"
     inkscape:connector-curvature="0"
     id="path17"
     d="m 180.628,40.013 -53.829,0 c -0.65,4.448 -1.25,8.447 -1.749,11.945 -6.248,6.348 -12.695,12.195 -19.442,17.643 l 7.147,0 c 3.749,-3.149 7.447,-6.397 11.046,-9.846 -0.55,3.149 -1.05,6.397 -1.5,9.846 l 45.932,0 c 1.149,-0.2 2.199,-0.35 3.148,-0.5 l 0.05,0.05 c -1,0.15 -2.049,0.3 -3.199,0.45 l 14.594,0 c -1.05,-9.296 -2.25,-17.693 -3.599,-25.14 19.642,11.745 39.034,20.092 58.276,25.14 l 16.644,0 C 230.008,65.502 205.518,55.656 180.628,40.013 l 0,0 z m -46.781,19.492 c -0.05,0 -0.05,0 -0.05,0.05 l 0,-0.05 c 0.05,-0.15 0.05,-0.25 0.1,-0.4 l 0,0.05 -0.05,0.2 0,0.15 0,0 z" /><path
     style="fill:#7b7b7b"
     inkscape:connector-curvature="0"
     id="path19"
     d="m 305.028,69.601 17.193,0 c 17.343,-4.698 34.486,-12.295 51.43,-22.841 -0.85,4.598 -1.6,9.546 -2.249,14.794 -0.351,2.599 -0.65,5.298 -0.95,8.047 l 60.426,0 c -0.449,-3.399 -0.949,-6.647 -1.449,-9.696 3.398,3.349 6.897,6.597 10.446,9.696 l 7.047,0 c -6.497,-5.498 -12.745,-11.446 -18.742,-17.793 -0.55,-3.449 -1.1,-7.397 -1.7,-11.795 l -52.028,0 c -22.743,15.643 -45.883,25.489 -69.424,29.588 l 0,0 z m 114.404,-9.796 c 0,-0.05 0,-0.05 -0.05,-0.05 l 0,-0.15 -0.05,-0.2 0,-0.05 c 0.05,0.15 0.05,0.25 0.1,0.4 l 0,0.05 0,0 z" /><path
     style="fill:#7b7b7b"
     inkscape:connector-curvature="0"
     id="path21"
     d="m 579.218,44.361 c -0.5,-0.6 -1.949,-2.049 -4.349,-4.349 l -108.906,0 -6.647,0 c -0.55,1.35 -0.85,3.349 -0.949,5.897 0.2,5.998 0.3,9.446 0.3,10.296 -1.499,1 -2.549,2.749 -3.148,5.248 -6.997,-6.597 -13.694,-13.744 -20.042,-21.441 l -6.248,0 c 8.047,9.946 16.594,18.993 25.64,27.139 -0.05,0.9 0,1.699 0.051,2.449 l 133.896,0 c -1.251,-10.695 -4.45,-19.091 -9.598,-25.239 l 0,0 z m -53.079,15.444 c 0,-0.25 -0.05,-0.55 -0.149,-0.899 l 0.149,0.1 c 0,0.1 0,0.15 0,0.2 l 0,0.599 0,0 z" /><path
     style="fill:#7b7b7b"
     inkscape:connector-curvature="0"
     id="path23"
     d="m 446.921,69.601 -7.047,0 c 4.147,3.648 8.446,7.097 12.794,10.396 -0.05,0.649 -0.05,1.399 -0.05,2.149 -0.999,-1.35 -1.999,-2.549 -2.998,-3.599 -1.949,-1.999 -4.249,-2.999 -6.897,-2.999 -1.699,0 -3.449,1.599 -5.248,4.798 -1.649,3.449 -2.599,5.448 -2.849,5.998 -0.65,-0.5 -1.25,-0.95 -1.8,-1.299 -0.149,-1.3 -0.35,-2.649 -0.5,-4.099 -0.449,-3.948 -0.949,-7.747 -1.449,-11.345 l -60.426,0 c -0.3,2.749 -0.6,5.547 -0.85,8.396 -0.55,5.248 -1.1,12.745 -1.699,22.391 l 219.562,0 c 1.299,-10.596 1.949,-17.093 1.949,-19.492 0,-3.999 -0.2,-7.747 -0.6,-11.295 l -133.895,0 c 0.05,1.199 0.249,2.199 0.499,2.949 0.101,0 0.2,0 0.25,0 l 0,0.6 c -0.1,-0.2 -0.2,-0.4 -0.25,-0.6 -0.25,-0.05 -0.55,-0.15 -0.949,-0.3 -0.6,-0.2 -1,-0.3 -1.25,-0.3 -0.149,0.7 -0.249,1.549 -0.35,2.549 -1.998,-1.6 -3.997,-3.249 -5.947,-4.898 l 0,0 z m 46.382,12.795 c 0.1,-0.1 0.199,-0.2 0.3,-0.25 l 0,0.6 -0.3,-0.35 0,0 z m 5.098,2.249 c -0.05,0.6 -0.05,1.2 -0.05,1.749 -0.15,-0.85 -0.3,-1.5 -0.45,-1.849 l 0.5,0.1 0,0 z m -40.934,3.499 0,0.45 c 0,-0.15 0,-0.25 -0.05,-0.4 l 0.05,-0.05 0,0 z m -4.248,1.249 0.499,0 c -0.05,0.55 0,1.149 0.15,1.75 l -0.649,0.6 0,-2.35 0,0 z" /><path
     style="fill:#7b7b7b"
     inkscape:connector-curvature="0"
     id="path25"
     d="m 168.233,69.601 c -0.1,0.05 -0.2,0.05 -0.3,0.05 0.1,0 0.2,0 0.3,-0.05 l -45.932,0 c -0.5,3.548 -0.95,7.247 -1.399,11.095 -0.5,4.049 -0.9,7.397 -1.2,9.996 -2.249,3.648 -3.898,6.797 -5.048,9.446 l 0,-0.6 c 0.45,-2.699 0.4,-4.498 -0.05,-5.348 -0.3,-0.6 -1,-0.9 -2.149,-0.95 -1.399,-0.05 -2.399,-0.25 -3.049,-0.6 -1.149,-0.75 -1.999,-2.249 -2.549,-4.498 -0.6,0 -1.6,0.2 -2.999,0.6 -1.399,0.4 -2.399,0.6 -2.999,0.6 0,-0.45 -0.1,-0.899 -0.3,-1.399 -0.2,-0.5 -0.3,-0.85 -0.3,-1 -0.5,0.2 -1.399,0.6 -2.649,1.15 -1.099,0.45 -1.849,0.649 -2.199,0.649 l 0,-0.6 c 0.05,-1.849 0.1,-3.699 0.15,-5.548 5.897,-4.048 11.645,-8.347 17.193,-12.995 l -7.147,0 c -3.349,2.699 -6.748,5.298 -10.196,7.747 -0.05,-1.049 -0.1,-2.049 -0.15,-3.049 -0.1,-1.649 -0.25,-3.198 -0.4,-4.598 0.05,-0.05 0.1,-0.05 0.15,-0.1 l -8.197,0 c -0.1,0.35 -0.2,0.7 -0.3,1.049 -0.85,0.65 -1.75,1.35 -2.599,2.049 -0.05,-0.05 -0.05,-0.15 -0.05,-0.2 -0.25,-1.25 -0.5,-2.199 -0.65,-2.899 l -126.25,0 c 0.8,4.148 1.35,7.297 1.699,9.546 1.05,7.597 2.099,14.694 3.049,21.242 l 223.71,0 c -0.649,-9.796 -1.25,-17.343 -1.799,-22.641 -0.25,-2.799 -0.55,-5.498 -0.799,-8.146 l -14.592,0 0,0.002 z M 65.524,74.349 c 0.25,-0.15 0.4,-0.35 0.4,-0.6 0.05,0.15 0.1,0.35 0.15,0.5 l -0.55,0.1 0,0 z" /><path
     style="fill:#7b7b7b"
     inkscape:connector-curvature="0"
     id="path27"
     d="m 257.047,110.085 c -23.69,0 -47.331,0.15 -70.972,0.399 -0.05,-0.45 -0.05,-0.85 -0.1,-1.299 -0.2,-3.149 -0.4,-6.047 -0.55,-8.796 l -223.71,0 c 1.699,11.945 3.149,22.191 4.398,30.738 l 232.657,0 c -0.1,-0.65 -0.2,-1.3 -0.25,-1.949 51.08,-0.75 102.259,-0.65 153.588,0.35 -0.1,0.45 -0.199,1 -0.3,1.6 l 231.657,0 c 0.351,-2.799 0.7,-5.748 1.149,-8.847 1.15,-8.646 2.1,-15.943 2.85,-21.891 l -219.561,0 c -0.2,2.749 -0.399,5.647 -0.6,8.796 -0.05,0.55 -0.05,1.05 -0.1,1.599 -29.539,-0.45 -59.077,-0.649 -88.515,-0.699" /><path
     style="fill:#7b7b7b"
     inkscape:connector-curvature="0"
     id="path29"
     d="m 322.221,69.601 -17.193,0 c -16.793,2.949 -33.736,2.949 -50.879,0 l -16.644,0 c 28.688,7.497 56.927,7.497 84.716,0 l 0,0 z" /><path
     style="fill:#7b7b7b"
     inkscape:connector-curvature="0"
     id="path31"
     d="m 40.484,11.574 c -1.899,1.649 -3.849,2.499 -5.897,2.499 -0.5,0.5 -1.35,2.449 -2.549,5.897 -1.149,3.349 -2.149,5.398 -2.898,6.098 -0.65,-0.65 -1.5,-2.349 -2.549,-5.098 -1,-2.599 -2.149,-4.499 -3.449,-5.698 -2.449,10.046 -3.698,15.444 -3.698,16.294 l -0.5,0.3 -0.45,-0.4 0.05,0 -0.1,-0.6 c -2.899,-5.647 -4.548,-8.646 -4.998,-8.996 -0.75,-0.65 -1.799,-1 -3.149,-1.149 -0.25,-0.05 -1.399,-0.05 -3.449,-0.05 -1.949,-0.05 -4.048,-0.45 -6.347,-1.199 -1.15,-0.4 -2.149,-0.8 -2.999,-1.2 -6.297,1.999 -9.546,2.999 -9.696,2.999 -1,0 -2.299,-0.7 -3.898,-2.1 -1.55,-1.399 -2.949,-2.099 -4.199,-2.099 -2.549,0 -4.748,0.799 -6.547,2.449 -0.35,0.35 -0.7,0.65 -0.949,1 -0.55,-1.049 -1.05,-1.799 -1.5,-2.249 -0.75,1.849 -2.149,3.299 -4.298,4.298 -1.2,0.55 -3.149,1.399 -5.848,2.549 -4.948,2.799 -7.397,9.446 -7.397,19.992 0,4.448 0.649,9.596 1.949,15.543 0.7,3.349 1.299,6.348 1.849,8.947 l 126.25,0 c -0.2,-0.65 -0.35,-1.1 -0.5,-1.299 -3.249,0.649 -5.148,0.35 -5.698,-0.9 -0.35,-0.65 -0.2,-2.249 0.4,-4.698 0.55,-2.449 0.6,-4.148 0.05,-5.198 -0.85,-1.649 -3.099,-2.499 -6.748,-2.499 -0.4,-2.849 -0.75,-6.747 -1,-11.646 -0.55,-3.448 -2.249,-5.198 -5.048,-5.198 -3.999,0 -7.647,1.399 -10.896,4.249 0,-0.05 0.4,-0.9 1.25,-2.649 0.85,-2.049 1.25,-3.848 1.25,-5.498 0,-3.149 -0.45,-4.848 -1.399,-5.098 -0.649,-0.149 -2.249,-0.149 -4.698,0 0,-0.649 0.1,-1.749 0.3,-3.398 0.2,-1.549 0.3,-2.649 0.3,-3.249 l -0.6,-0.05 c -0.3,0.3 -0.9,0.8 -1.85,1.45 -1.25,0.899 -2.249,1.399 -2.949,1.549 0,-0.4 -0.2,-0.6 -0.6,-0.6 l 0,-5.398 c 0.4,-2.799 0.6,-6.597 0.6,-11.396 -0.95,0.351 -2.599,1.5 -4.898,3.499 l 0,0 z M -25.14,27.418 c -0.05,-0.2 -0.1,-0.45 -0.15,-0.7 0.1,0.35 0.15,0.5 0.2,0.55 l 0,0.6 -0.05,-0.45 0,0 z m 75.32,27.589 0,-0.6 0.25,0.2 c -0.05,0.15 -0.15,0.25 -0.25,0.4 l 0,0 z" /><path
     style="fill:#7b7b7b"
     inkscape:connector-curvature="0"
     id="path33"
     d="m 199.97,142.022 c -0.45,-4.148 -0.85,-7.797 -1.2,-10.896 l -232.656,0 c 2.499,17.443 3.998,27.639 4.498,30.688 1.949,12.346 3.599,18.543 4.898,18.543 0.55,0 1.2,-0.1 1.85,-0.301 0.649,-0.199 1,-0.299 1.149,-0.299 l 0,-0.7 -2.749,0 c 2.549,-0.05 5.897,-0.499 10.046,-1.249 -0.15,4.548 -0.3,9.496 -0.45,14.844 l 572.971,0 c -0.15,-2.799 -0.2,-5.548 -0.1,-8.197 0,-2.248 0.149,-5.147 0.5,-8.596 0.05,-0.4 0.05,-0.801 0.1,-1.15 0.35,-3.648 0.899,-7.246 1.6,-10.695 1.349,0.15 2.799,0.35 4.348,0.6 l 14.994,0 c 0,-3.848 1.25,-14.994 3.698,-33.486 l -231.658,0 c -0.25,1.199 -0.5,2.599 -0.8,4.248 -1.299,0.949 -2.948,2.25 -4.947,3.898 -1.25,1.05 -3.149,1.75 -5.648,2.1 -3.398,0.299 -5.997,0.799 -7.797,1.449 -1.849,0.65 -4.748,3.848 -8.796,9.496 -4.049,5.648 -9.297,8.047 -15.744,7.197 1.1,1.749 -1.549,3.248 -7.896,4.498 -6.347,1.25 -9.597,4.148 -9.746,8.597 -0.45,0 -0.7,-0.2 -0.85,-0.601 -0.101,-0.249 -0.15,-0.749 -0.15,-1.398 -15.644,1.249 -22.991,2.398 -21.941,3.448 1.049,1.05 -2.949,1.55 -11.896,1.55 -0.1,0 -0.899,0.299 -2.399,0.949 -1.899,-1.75 -3.299,-3.748 -4.148,-6.047 -0.4,-1.1 -1.299,-3.85 -2.749,-8.297 -1.35,-0.35 -2.199,-0.7 -2.449,-1.15 -0.15,-0.25 -0.85,-0.449 -2.149,-0.699 -1.15,-3.849 -2.399,-5.998 -3.649,-6.397 -0.75,-0.95 -1.699,-1.3 -2.749,-0.999 -1.1,0.299 -2.449,0.249 -3.999,-0.201 l -2.299,-4.098 c -1.349,-0.55 -3.599,-0.699 -6.647,-0.449 -1.2,-0.75 -2.949,-1.2 -5.198,-1.35 -5.598,-0.301 -10.696,-1.6 -15.294,-3.898 -0.649,-0.352 -1.299,-0.652 -1.899,-0.952 l 0,0 z m -44.282,26.189 c -0.15,0 -0.3,0 -0.5,-0.05 -0.1,0.15 -0.2,0.25 -0.35,0.4 -0.2,0.199 -0.5,0.499 -0.9,0.898 l 0.05,-1.699 c 0.45,0.15 0.85,0.301 1.2,0.4 0.05,-0.051 0.05,-0.1 0.1,-0.15 l 0.4,0.201 0,0 z" /><path
     style="fill:#7b7b7b"
     inkscape:connector-curvature="0"
     id="path35"
     d="m 6.847,232.085 c 0,-1.1 4.598,-1.049 13.795,0.15 10.446,1.6 16.893,2.549 19.342,2.898 2.049,0.301 4.848,0.4 8.397,0.25 5.548,-0.149 8.946,-0.25 10.296,-0.25 5.897,0.051 18.692,0.85 38.435,2.449 10.146,0.85 18.692,1.449 25.59,1.85 6.197,0.35 11.045,0.5 14.544,0.5 10.596,0 24.291,-1.25 41.083,-3.799 l 0,1.199 c 0.2,0 1.699,-0.149 4.448,-0.449 0.5,2.1 1.05,4.298 1.6,6.598 3.249,-1.15 7.847,-2.25 13.744,-3.199 11.545,-1.949 27.189,-2.949 46.881,-2.949 6.847,0 18.693,1.4 35.436,4.199 -0.1,0.199 -0.2,0.399 -0.3,0.6 4.748,1.648 10.945,3.049 18.492,4.248 6.747,1.049 13.045,1.699 18.893,1.949 10.046,1.949 20.042,3.848 30.088,5.797 l 25.74,0 c 2.148,-0.749 4.348,-1.648 6.597,-2.698 4.849,-2.3 8.797,-5.048 11.896,-8.297 12.396,-2.099 25.39,-5.048 38.984,-8.847 5.698,-1.6 12.845,-3.598 21.441,-5.997 4.099,-1.149 8.547,-2.399 13.295,-3.749 7.646,-1.85 14.994,-3.098 22.041,-3.799 4.398,-0.449 8.696,-0.648 12.845,-0.648 4.849,0 9.946,0.199 15.394,0.648 4.998,0.4 10.246,1 15.744,1.75 4.848,0.65 9.347,1.399 13.495,2.199 3.348,0.65 6.497,1.299 9.445,1.999 l 7.897,0 0.1,-3.599 c -0.05,-0.35 -0.1,-1.1 -0.25,-2.35 -0.05,-0.249 -0.05,-0.449 -0.1,-0.699 -0.45,-2.599 -1.149,-6.747 -2.1,-12.494 -0.949,-5.199 -1.499,-10.146 -1.749,-14.895 l -572.97,0 c -0.3,8.447 -0.65,17.793 -1.05,28.088 -0.15,3.449 -0.25,7.048 -0.399,10.746 l 0,2.449 c 1.949,0.15 5.897,-0.1 11.745,-0.75 5.248,-0.6 8.997,-0.949 11.195,-1.049 l 0,-0.049 0,0 z m 485.456,-23.689 c -0.5,0.199 -0.649,0.149 -0.5,-0.15 0.65,0 0.8,0.049 0.5,0.15 l 0,0 z" /><path
     style="fill:#999999"
     inkscape:connector-curvature="0"
     id="path37"
     d="m 370.152,130.776 c -1.649,0.25 -2.699,0.35 -3.148,0.35 -0.85,0 -2.199,-0.35 -4.049,-1 -1.899,-0.65 -3.248,-1 -4.098,-1 -1.6,0 -4.398,1.399 -8.347,4.249 -1.45,1.05 -3.499,2.649 -6.248,4.897 -1.249,1.051 -3.148,1.75 -5.647,2.1 -3.398,0.3 -5.998,0.8 -7.797,1.449 -1.85,0.65 -4.748,3.849 -8.797,9.496 -4.048,5.648 -10.03,4.2 -13.872,6.216 0,0 -3.421,4.23 -9.769,5.479 -6.347,1.25 -9.596,4.148 -9.746,8.598 -0.449,0 -0.699,-0.201 -0.85,-0.601 -0.1,-0.249 -0.149,-0.749 -0.149,-1.399 -15.644,1.25 -22.991,2.398 -21.941,3.449 1.049,1.049 -2.949,1.549 -11.896,1.549 -0.15,0 -2.299,0.85 -6.447,2.6 -4.148,1.699 -6.348,2.549 -6.647,2.549 -1.049,0 -2.199,-0.5 -3.548,-1.5 -1.299,-1 -2.499,-1.5 -3.599,-1.5 -12.045,2 -18.493,3 -19.242,3 -1.2,0 -4.148,1.499 -8.847,4.498 -4.648,2.998 -8.446,4.498 -11.396,4.498 -0.85,0 -2.399,-0.35 -4.748,-1 -2.349,-0.649 -3.898,-1 -4.748,-1 -3.648,0 -5.998,1.4 -7.147,4.148 -0.65,1.55 -0.95,4.398 -0.95,8.447 0,7.146 0.1,11.745 0.35,13.895 0.649,6.747 2.599,16.493 5.748,29.238 3.249,-1.15 7.847,-2.25 13.745,-3.199 11.545,-1.949 27.189,-2.949 46.881,-2.949 10.446,0 32.287,3.199 65.524,9.646 16.643,3.199 33.187,6.398 49.63,9.597 5.897,0 12.495,-1.7 19.792,-5.147 11.396,-5.398 17.942,-13.445 19.692,-24.191 0.85,-5.348 1.199,-13.594 1.149,-24.84 -0.051,-3.348 0.149,-5.897 0.6,-7.547 0.6,-2.148 1.749,-3.848 3.398,-5.098 2.599,-2 5.148,-5.098 7.597,-9.246 2.999,-5.148 4.499,-9.946 4.499,-14.494 0,-12.246 -5.349,-22.242 -16.094,-30.088 -4.249,-2.75 -7.547,-4.898 -9.896,-6.448 -3.948,0.25 -7.797,0.649 -11.596,1.149 -3.148,0.551 -5.597,0.9 -7.346,1.15 l 0,0 z" /><path
     style="fill:#7b7b7b"
     inkscape:connector-curvature="0"
     id="path39"
     d="m 395.692,146.021 c -1.449,1.498 -3.948,2.248 -7.397,2.248 -2.448,0 -19.192,3.898 -50.229,11.746 -4.349,4.548 -9.246,6.497 -14.595,5.748 -9.496,5.997 -18.093,11.994 -25.839,17.992 -2.449,-2.648 -5.099,-4.348 -7.947,-5.049 -2.898,-0.749 -4.748,-1.099 -5.598,-1.099 -0.55,0 -3.898,0.55 -10.046,1.599 -6.147,1.051 -9.996,1.55 -11.545,1.55 -2.099,-0.35 -4.249,-1.05 -6.498,-2.149 -4.398,-2.199 -7.297,-5.248 -8.747,-9.096 -0.4,-1.1 -1.299,-3.849 -2.749,-8.297 -1.35,-0.35 -2.199,-0.699 -2.449,-1.149 -0.15,-0.25 -0.85,-0.45 -2.149,-0.7 -1.15,-3.848 -2.399,-5.998 -3.649,-6.396 -0.75,-0.95 -1.699,-1.301 -2.749,-1 -1.1,0.3 -2.449,0.25 -3.999,-0.2 l -2.299,-4.099 c -1.349,-0.549 -3.598,-0.699 -6.647,-0.449 -1.2,-0.75 -2.949,-1.199 -5.198,-1.35 -5.598,-0.301 -10.695,-1.6 -15.294,-3.898 -4.598,-2.35 -8.146,-4.049 -10.646,-5.098 -3.149,-1.35 -7.347,-2.949 -12.695,-4.699 -0.7,0.65 -1.45,1.301 -2.299,1.949 -0.95,0.7 -2.249,1.65 -3.898,2.899 -2.749,2.249 -4.098,5.698 -4.098,10.246 0,6.946 2.349,20.392 7.047,40.333 4.698,19.943 7.047,31.588 7.047,34.986 0,2.699 -0.1,4.248 -0.25,4.648 -0.05,0.1 -1.299,1.75 -3.749,4.998 l 0,4.098 c 0.35,0 5.448,-0.6 15.244,-1.748 10.646,-1.25 17.993,-2 22.141,-2.35 1.549,-0.15 4.348,-0.85 8.347,-2.1 4.848,-1.549 9.946,-2.848 15.194,-3.798 18.842,-3.499 48.231,-5.248 88.115,-5.248 14.794,0 32.837,0.85 54.128,2.599 21.242,1.699 34.736,2.549 40.484,2.549 -5.647,-5.647 -10.246,-21.342 -13.745,-46.98 -1.549,-12.745 -2.698,-21.592 -3.349,-26.539 -1.1,-8.297 -2.148,-13.096 -3.148,-14.445 0,0.65 -0.35,1 -0.999,1 -1.149,3.449 -2.249,5.697 -3.248,6.748 l 0,0 z" /><path
     style="fill:#999999"
     inkscape:connector-curvature="0"
     id="path41"
     d="m 80.917,67.302 c -3.249,0.65 -5.147,0.35 -5.697,-0.899 -0.35,-0.65 -0.2,-2.249 0.399,-4.698 0.55,-2.449 0.6,-4.148 0.05,-5.198 -0.85,-1.649 -3.099,-2.499 -6.748,-2.499 -0.4,-2.849 -0.75,-6.748 -1,-11.646 -0.55,-3.449 -2.249,-5.198 -5.048,-5.198 -3.999,0 -7.647,1.399 -10.896,4.248 0,-0.05 0.4,-0.899 1.25,-2.649 0.85,-2.049 1.25,-3.848 1.25,-5.498 0,-3.149 -0.45,-4.848 -1.4,-5.098 -0.649,-0.15 -2.249,-0.15 -4.698,0 0,-0.65 0.1,-1.749 0.3,-3.398 0.2,-1.549 0.3,-2.649 0.3,-3.249 l -0.6,-0.05 c -0.3,0.3 -0.9,0.8 -1.85,1.45 -1.25,0.899 -2.249,1.399 -2.949,1.549 0,-0.4 -0.2,-0.6 -0.6,-0.6 l 0,-5.397 c 0.4,-2.799 0.6,-6.598 0.6,-11.396 -0.95,0.35 -2.599,1.499 -4.898,3.499 -1.899,1.649 -3.849,2.499 -5.897,2.499 -0.5,0.5 -1.35,2.449 -2.549,5.897 -1.149,3.349 -2.149,5.398 -2.898,6.098 -0.65,-0.65 -1.5,-2.349 -2.549,-5.098 -1,-2.599 -2.149,-4.498 -3.448,-5.697 -2.449,10.046 -3.699,15.443 -3.699,16.293 l -0.5,0.3 -0.45,-0.4 -0.05,-0.6 C 13.743,24.219 12.094,21.22 11.644,20.87 10.894,20.22 9.845,19.87 8.495,19.72 8.245,19.67 7.096,19.67 5.047,19.67 3.098,19.62 0.998,19.22 -1.301,18.471 c -1.149,-0.4 -2.149,-0.8 -2.999,-1.2 -6.297,1.999 -9.546,2.999 -9.696,2.999 -1,0 -2.299,-0.699 -3.898,-2.099 -1.549,-1.4 -2.949,-2.1 -4.199,-2.1 -2.549,0 -4.748,0.8 -6.547,2.449 -0.35,0.35 -0.7,0.65 -0.949,1 -0.55,-1.049 -1.05,-1.799 -1.5,-2.249 -0.75,1.849 -2.149,3.299 -4.298,4.298 -1.2,0.55 -3.149,1.399 -5.848,2.549 -4.948,2.799 -7.397,9.446 -7.397,19.992 0,4.448 0.649,9.596 1.949,15.544 1.849,8.646 2.999,14.844 3.548,18.492 0.75,5.248 1.5,10.296 2.149,15.094 l 36.235,0 C -1.5,85.944 0.1,81.996 0,81.346 c -0.25,-1.099 -0.7,-1.949 -1.399,-2.549 -0.25,-0.2 -0.5,-0.35 -0.8,-0.5 -3.749,-1.85 -7.397,-3.949 -11.045,-6.348 -1.35,-0.7 -2.949,-1.1 -4.798,-1.2 -0.1,-2.299 -0.25,-5.348 -0.45,-9.196 0,-1.25 0.1,-2.499 0.25,-3.749 0.2,-1.549 0.5,-3.148 0.95,-4.748 0.4,-1.5 0.8,-2.749 1.199,-3.698 0.35,0 1.45,0.2 3.199,0.55 1.75,0.35 2.849,0.55 3.399,0.55 0.35,0 4.298,-1.75 11.845,-5.298 6.547,-2.999 11.295,-4.448 14.344,-4.299 l 0.45,0.4 c 2.749,4.848 4.348,7.547 4.798,8.097 1.549,1.949 4.798,3.499 9.646,4.648 10.146,2.349 15.344,3.599 15.594,3.648 0,0.55 0.15,1.299 0.4,2.199 0.25,0.95 0.5,1.699 0.8,2.249 l 0,0.55 c 0.1,-0.15 0.2,-0.25 0.25,-0.4 l 0,-0.05 c 1.1,-1.649 2.199,-3.249 3.299,-4.898 2.349,-3.549 3.798,-5.498 4.348,-5.748 0.5,0.4 0.95,1.25 1.3,2.549 0.55,1.849 0.899,4.698 1.049,8.446 0,0.05 0,0.1 0,0.15 0,0.35 0,0.75 0,1.099 0,0.35 0,0.75 0,1.1 0.05,4.848 0.05,7.447 0.05,7.797 1.199,0.55 2.399,0.55 3.598,0 0.05,0.25 0.15,0.5 0.2,0.85 0,0.15 0,0.3 0.05,0.45 0.25,1.6 0.35,3.949 0.35,7.098 0.1,-0.1 0.4,-0.3 0.85,-0.6 l 0.55,-0.05 c 0.85,2.349 1.549,3.948 2.149,4.798 l 0.2,0.15 c 0,0 0,0.05 -0.05,0.1 1.2,1.549 2.699,2.349 4.448,2.449 -2.049,0.55 -3.698,2.149 -4.898,4.698 -0.1,0.15 -0.2,0.35 -0.25,0.6 l 46.981,0 -0.05,-0.05 c -0.3,-0.6 -1,-0.899 -2.149,-0.949 -1.399,-0.05 -2.399,-0.25 -3.049,-0.6 -1.149,-0.75 -1.999,-2.249 -2.549,-4.498 -0.6,0 -1.6,0.2 -2.999,0.6 -1.399,0.4 -2.399,0.6 -2.999,0.6 0,-0.45 -0.1,-0.9 -0.3,-1.399 -0.2,-0.5 -0.3,-0.85 -0.3,-1 -0.5,0.2 -1.399,0.6 -2.649,1.149 -1.1,0.45 -1.849,0.65 -2.199,0.65 l 0,-0.6 c 0.2,-4.648 0.15,-9.296 -0.15,-13.844 -0.55,-9.047 -2.099,-14.444 -4.648,-16.294 -0.7,0.7 -1.799,3.849 -3.249,9.446 -1.399,5.198 -2.299,8.347 -2.699,9.496 -0.05,0.2 -0.1,0.35 -0.15,0.4 l 0,-0.6 c 0,-0.6 -0.2,-1.999 -0.649,-4.249 -0.501,-2.347 -0.901,-3.746 -1.151,-4.196 l 0,0 z m -107.806,-41.033 0,0.6 -0.05,-0.45 c -0.05,-0.35 -0.2,-0.699 -0.35,-1.099 0.25,0.598 0.35,0.898 0.4,0.949 l 0,0 z m 75.52,27.289 0,0.05 -0.25,-0.2 0.25,0.15 0,0 z" /><path
     style="fill:#999999"
     inkscape:connector-curvature="0"
     id="path43"
     d="m 126.75,79.347 c -1.6,0 -4.148,2.799 -7.697,8.447 -1.25,1.949 -2.299,3.748 -3.249,5.447 l 16.943,0 c -0.05,-0.05 -0.05,-0.1 -0.05,-0.149 -1.649,-9.147 -3.649,-13.745 -5.947,-13.745 l 0,0 z" /><path
     style="fill:#999999"
     inkscape:connector-curvature="0"
     id="path45"
     d="m 65.874,93.242 c -0.75,1.649 -1.799,4.298 -3.048,7.896 0.15,0.15 1.149,0.45 3.048,0.8 1.85,0.35 2.799,1.649 2.849,3.949 0,0.85 0,1.649 -0.05,2.449 1.099,-2.149 2.249,-3.099 3.499,-2.749 0.799,0.15 1.349,0.7 1.599,1.6 -0.35,-3.798 0.2,-5.848 1.75,-6.098 1.549,-0.3 2.549,-0.95 2.999,-1.899 0.45,-0.949 1.35,-1.749 2.649,-2.299 1.25,-0.55 3.599,-0.85 6.947,-0.85 2.149,0 3.499,0.1 4.048,0.3 0.65,0.25 1.2,1.149 1.75,2.699 0.55,1.55 1.1,3.449 1.649,5.698 0.549,2.249 0.949,4.748 1.1,7.447 0.6,0 1.599,-0.2 2.999,-0.6 1.399,-0.35 2.399,-0.55 2.999,-0.55 0.05,0.05 0.05,0.15 0.1,0.25 0.35,0.8 0.5,2.199 0.5,4.198 0.55,0.05 1.899,-0.35 3.948,-1.1 2,-0.75 3.099,-1.149 3.249,-1.1 0.75,2.849 6.597,5.248 17.443,7.197 11.396,1.6 17.843,2.749 19.292,3.399 0,3.249 1,6.847 3.048,10.896 1.899,3.748 2.899,8.396 3.049,13.944 l 0,0.351 c 0,0.25 0,0.499 0,0.749 0,1.55 -0.1,2.399 -0.25,2.599 -0.6,0.65 -2.649,1.15 -6.198,1.5 -5.198,0.549 -26.39,1.449 -63.524,2.799 -12.195,0.449 -32.387,3.998 -60.626,10.746 -0.55,0.149 -1.1,0.25 -1.649,0.399 l -1.599,0.399 c 1.2,1.949 2.449,3.398 3.699,4.248 1.299,0.9 2.999,1.35 5.098,1.35 2.849,0 7.597,-0.75 14.244,-2.199 8.896,-2.148 16.144,-3.848 21.792,-5.147 23.041,-5.349 44.032,-8.747 63.075,-10.097 30.938,-2.199 49.88,-4.048 56.827,-5.497 3.749,-0.8 6.148,-1.749 7.197,-2.899 0.7,-0.749 1.05,-2.049 1.05,-3.998 0,-1.199 -0.55,-2.549 -1.649,-4.098 -1.149,-1.699 -2.599,-3.049 -4.348,-3.999 -2.199,-1.199 -5.598,-3.798 -10.246,-7.797 -4.198,-3.648 -6.397,-5.448 -6.647,-5.448 -3.449,0 -5.948,-0.6 -7.397,-1.799 -1.5,-1.2 -2.749,-1.799 -3.749,-1.799 -0.75,0 -2.049,0.2 -3.948,0.55 -1.75,0.15 -3.099,-0.2 -4.148,-1.149 -1.449,-1.299 -2.349,-2.849 -2.799,-4.598 -0.35,-1.399 -0.65,-2.099 -0.9,-2.099 -0.399,0 -1.399,0.4 -3.049,1.25 -1.649,0.85 -2.499,1.25 -2.649,1.25 -1,0 -1.499,-0.25 -1.499,-0.7 l 0,-5.998 c -0.65,0 -1.5,0.2 -2.599,0.6 -1.099,0.4 -1.849,0.6 -2.199,0.6 0,-3.499 -0.6,-8.696 -1.849,-15.543 l -16.943,0 c -1.1,1.949 -1.999,3.749 -2.699,5.398 -0.1,0.149 -0.2,0.35 -0.25,0.5 l 0,-0.6 c 0.45,-2.649 0.45,-4.448 0,-5.298 l -46.985,0 0,-0.003 z" /><path
     style="fill:#999999"
     inkscape:connector-curvature="0"
     id="path47"
     d="m -10.546,105.736 c 2.299,-4.898 4.249,-9.046 5.798,-12.495 l -36.235,0 c 5.748,40.334 9.046,62.824 9.796,67.572 1.949,12.346 3.599,18.543 4.898,18.543 0.55,0 1.2,-0.1 1.85,-0.3 0.649,-0.2 1,-0.3 1.149,-0.3 l 0,-0.699 -3.149,0 c 0.9,-0.051 1.949,-0.101 3.099,-0.201 4.148,-0.398 9.796,-1.449 16.943,-3.098 3.549,-0.801 12.145,-2.949 25.84,-6.498 -0.05,-0.05 -0.15,-0.15 -0.2,-0.199 -0.949,-0.85 -3.749,-1.75 -8.497,-2.699 -5.248,-1.05 -11.895,-7.396 -19.992,-19.092 -4.548,-6.648 -6.697,-13.795 -6.397,-21.542 0.249,-5.997 1.949,-12.344 5.097,-18.992 l 0,0 z" /><polygon
     style="fill:#6a6a6a"
     id="polygon49"
     points="48.631,53.607 48.631,53.558 48.631,53.558 48.381,53.407 " /><polygon
     style="fill:#6a6a6a"
     id="polygon51"
     points="16.693,30.467 16.744,30.467 16.744,30.467 16.644,29.867 " /><path
     style="fill:#7b7b7b"
     inkscape:connector-curvature="0"
     id="path53"
     d="m -9.496,50.458 c -0.55,0 -1.649,-0.2 -3.398,-0.55 -1.75,-0.35 -2.849,-0.55 -3.199,-0.55 -0.4,0.95 -0.8,2.199 -1.2,3.699 -0.45,1.599 -0.75,3.199 -0.95,4.748 -0.15,1.25 -0.25,2.499 -0.25,3.749 0.2,3.849 0.35,6.897 0.45,9.196 1.849,0.1 3.448,0.5 4.798,1.2 3.648,2.399 7.297,4.498 11.045,6.347 0.3,0.15 0.55,0.3 0.8,0.5 0.7,0.6 1.149,1.449 1.399,2.549 0.15,0.95 -3.349,9.046 -10.546,24.39 -3.148,6.647 -4.848,12.995 -5.098,18.993 -0.3,7.747 1.849,14.894 6.397,21.542 8.097,11.695 14.744,18.042 19.992,19.092 4.748,0.949 7.547,1.85 8.497,2.699 0.05,0.049 0.15,0.149 0.2,0.199 l 1.599,-0.399 c 0.55,-0.149 1.1,-0.25 1.649,-0.399 28.239,-6.748 48.431,-10.297 60.626,-10.746 37.135,-1.35 58.327,-2.25 63.524,-2.799 3.548,-0.35 5.598,-0.85 6.197,-1.5 0.15,-0.199 0.25,-1.049 0.25,-2.599 0,-0.25 0,-0.499 0,-0.749 l 0,-0.351 c -0.15,-5.548 -1.149,-10.196 -3.049,-13.944 -2.049,-4.048 -3.049,-7.647 -3.049,-10.896 -1.449,-0.65 -7.896,-1.799 -19.292,-3.399 -10.846,-1.949 -16.693,-4.348 -17.443,-7.197 -0.15,-0.05 -1.25,0.35 -3.249,1.1 -2.049,0.75 -3.398,1.15 -3.948,1.1 0,-1.999 -0.15,-3.398 -0.5,-4.198 -0.05,-0.1 -0.05,-0.2 -0.1,-0.25 -0.6,0 -1.6,0.2 -2.999,0.55 -1.399,0.4 -2.399,0.6 -2.999,0.6 -0.15,-2.699 -0.549,-5.198 -1.099,-7.447 -0.55,-2.249 -1.1,-4.148 -1.649,-5.698 -0.549,-1.55 -1.1,-2.449 -1.75,-2.699 -0.55,-0.2 -1.899,-0.3 -4.048,-0.3 -3.349,0 -5.698,0.3 -6.947,0.85 -1.299,0.55 -2.199,1.349 -2.649,2.299 -0.45,0.95 -1.449,1.6 -2.999,1.899 -1.55,0.25 -2.099,2.299 -1.75,6.098 -0.25,-0.9 -0.8,-1.45 -1.599,-1.6 -1.25,-0.35 -2.399,0.6 -3.499,2.749 0.05,-0.8 0.05,-1.599 0.05,-2.449 -0.05,-2.299 -1,-3.599 -2.849,-3.949 -1.899,-0.35 -2.898,-0.65 -3.049,-0.8 1.45,-4.048 2.549,-6.847 3.299,-8.497 1.2,-2.549 2.849,-4.148 4.898,-4.698 -1.749,-0.1 -3.249,-0.899 -4.448,-2.449 0,-0.05 0,-0.05 0,-0.05 -0.05,-0.05 -0.1,-0.15 -0.15,-0.2 -0.6,-0.85 -1.299,-2.449 -2.149,-4.798 l -0.55,0.05 c -0.45,0.3 -0.75,0.5 -0.85,0.6 0,-3.149 -0.1,-5.498 -0.35,-7.098 -0.05,-0.15 -0.05,-0.3 -0.05,-0.45 -0.05,-0.35 -0.15,-0.6 -0.2,-0.85 -1.199,0.55 -2.399,0.55 -3.598,0 0,-0.35 0,-2.949 -0.05,-7.797 0,-0.35 0,-0.75 0,-1.1 0,-0.35 0,-0.75 0,-1.1 0,-0.05 0,-0.1 0,-0.15 -0.15,-3.749 -0.5,-6.597 -1.049,-8.446 -0.35,-1.3 -0.8,-2.149 -1.3,-2.549 -0.55,0.25 -1.999,2.199 -4.348,5.748 -1.1,1.649 -2.199,3.249 -3.299,4.898 l 0,0.05 c -0.05,0.15 -0.15,0.25 -0.25,0.4 l 0,-0.55 c -0.3,-0.55 -0.55,-1.299 -0.8,-2.249 -0.25,-0.9 -0.4,-1.649 -0.4,-2.199 -0.25,-0.05 -5.448,-1.299 -15.594,-3.648 -4.848,-1.15 -8.097,-2.699 -9.646,-4.648 -0.45,-0.55 -2.049,-3.249 -4.798,-8.097 l -0.45,-0.4 c -3.049,-0.15 -7.797,1.3 -14.344,4.298 -7.543,3.55 -11.491,5.299 -11.841,5.299 l 0,0 z" /><path
     style="fill:#cdcbcc"
     inkscape:connector-curvature="0"
     id="path55"
     d="m 195.222,153.967 c 1.749,-1.749 2.299,-4.599 1.549,-8.497 0.25,-0.049 0.5,-0.149 0.799,-0.25 0.35,-0.149 0.7,-0.199 1.05,-0.25 -0.15,-1.199 -0.3,-2.448 -0.45,-3.798 -0.85,-7.797 -1.549,-13.745 -2.049,-17.893 1.549,0.3 0.5,-0.35 -3.199,-1.899 -3.049,-1.75 -4.398,-4.148 -4.098,-7.097 -1.949,0.15 -12.245,1.199 -30.988,3.148 -8.497,0.85 -15.594,1.55 -21.292,2 -6.947,0.55 -11.845,0.85 -14.594,0.85 -22.691,-0.8 -34.536,-1.2 -35.536,-1.2 -11.945,0 -25.59,0.95 -40.884,2.899 1.35,1 3.699,3.548 6.947,7.647 3.849,4.898 6.748,8.197 8.597,9.896 2.249,2.35 3.898,4.148 5.048,5.298 2.049,2.05 3.799,3.099 5.198,3.198 4.148,0.25 8.247,0.85 12.195,1.75 3.149,0.85 4.798,1.25 4.998,1.25 5.048,-0.551 8.447,-0.75 10.196,-0.601 2.549,0.149 5.898,1.949 9.946,5.397 4.148,3.499 7.547,6.398 10.196,8.646 5.048,4.249 7.647,6.398 7.897,6.398 1.25,0 4.848,-0.9 10.896,-2.699 6.348,-1.949 10.146,-3.049 11.346,-3.349 0.2,0.55 1,1.1 2.399,1.649 0.3,0.1 0.55,0.199 0.799,0.3 l 0.25,-9.146 c 0.75,-0.649 1.25,-1.55 1.5,-2.698 0.3,-1.15 0.5,-2.949 0.55,-5.398 0.15,-3.248 -0.65,-6.848 -2.349,-10.846 -1.649,-3.998 -2.499,-6.147 -2.499,-6.397 0.05,-0.55 0.2,-1.849 0.45,-3.999 0.05,-0.6 0.15,-1.149 0.2,-1.599 1.649,-0.1 3.599,-0.25 5.748,-0.4 5.048,-0.4 7.747,-0.6 8.097,-0.6 5.448,0 10.396,1.749 14.744,5.248 4.348,3.499 7.097,6.098 8.147,7.797 1.049,1.649 1.899,5.198 2.549,10.546 0.6,5.148 0.3,8.097 -0.95,8.797 3.298,-1.599 5.498,-2.948 6.597,-4.098 l 0,0 z" /><path
     style="fill:#999999"
     inkscape:connector-curvature="0"
     id="path57"
     d="m 196.771,145.47 c 0.75,3.898 0.2,6.748 -1.549,8.497 -1.1,1.149 -3.299,2.499 -6.598,4.099 1.25,-0.7 1.549,-3.648 0.95,-8.797 -0.65,-5.348 -1.5,-8.896 -2.549,-10.546 -1.05,-1.699 -3.799,-4.298 -8.147,-7.797 -4.348,-3.499 -9.296,-5.248 -14.744,-5.248 -0.35,0 -3.049,0.2 -8.097,0.6 -2.149,0.15 -4.098,0.3 -5.748,0.4 -0.05,0.45 -0.15,1 -0.2,1.599 -0.25,2.149 -0.4,3.449 -0.45,3.999 0,0.25 0.85,2.399 2.499,6.397 1.699,3.998 2.499,7.598 2.349,10.846 -0.05,2.449 -0.25,4.248 -0.55,5.398 -0.25,1.148 -0.75,2.049 -1.5,2.698 l -0.25,9.146 c 0.45,0.149 0.85,0.3 1.2,0.399 0.05,-0.05 0.05,-0.1 0.1,-0.149 l 0.4,0.2 c -0.15,0 -0.3,0 -0.5,-0.051 -0.1,0.15 -0.2,0.25 -0.35,0.4 -0.2,0.199 -0.5,0.5 -0.9,0.899 l 0.05,-1.699 c -0.25,-0.101 -0.5,-0.2 -0.799,-0.3 -1.399,-0.55 -2.199,-1.1 -2.399,-1.649 -1.199,0.3 -4.998,1.399 -11.345,3.349 -6.048,1.799 -9.646,2.699 -10.896,2.699 -0.25,0 -2.849,-2.149 -7.897,-6.398 -2.649,-2.248 -6.047,-5.147 -10.196,-8.646 -4.048,-3.448 -7.397,-5.248 -9.946,-5.397 -1.749,-0.149 -5.148,0.05 -10.196,0.601 -0.2,0 -1.849,-0.4 -4.998,-1.25 -3.948,-0.9 -8.047,-1.5 -12.195,-1.75 -1.4,-0.1 -3.149,-1.148 -5.198,-3.198 -1.149,-1.149 -2.799,-2.948 -5.048,-5.298 -1.849,-1.699 -4.748,-4.998 -8.597,-9.896 -3.249,-4.099 -5.598,-6.647 -6.947,-7.647 -1.149,0.15 -2.249,0.25 -3.398,0.4 -16.693,2.199 -29.688,3.299 -38.935,3.299 -2.499,0 -5.748,-0.3 -9.796,-0.9 -3.099,-0.25 -6.048,0.15 -8.896,1.1 0,0.3 0,0.65 0,1 0,5.499 0.05,13.094 0.15,22.84 -0.05,3.049 -0.1,6.548 -0.2,10.446 0.15,0.649 0.25,1.3 0.35,1.999 0.65,3.898 1.5,6.648 2.599,8.247 1.599,2.3 4.148,3.448 7.697,3.448 1.25,0 5.948,-0.699 14.194,-2.099 8.246,-1.4 12.595,-2.099 13.145,-2.099 3.898,0 6.598,1.799 8.097,5.447 0.85,2.049 1.399,3.299 1.699,3.748 0.85,1.15 1.999,1.699 3.548,1.699 2.249,0 5.548,-0.799 9.996,-2.449 4.448,-1.648 7.147,-2.448 7.997,-2.448 0.399,0 1.399,0.3 2.999,0.899 1.6,0.6 3.149,0.9 4.598,0.9 0.1,0 2.199,-0.5 6.348,-1.5 4.148,-1 6.447,-1.5 6.897,-1.5 1.35,0 3.249,1.051 5.648,3.149 2.349,2.049 4.398,2.999 6.147,2.948 2.449,-0.149 4.098,0.6 4.998,2.199 0.5,0.85 0.899,2.649 1.25,5.398 0.3,2.599 0.85,4.447 1.599,5.498 1.15,1.648 3.149,2.498 5.998,2.498 3.049,0 7.847,-0.549 14.395,-1.648 7.047,-1.199 11.445,-1.85 13.294,-1.949 2.849,-0.2 6.298,-1.55 10.296,-4.099 3.849,-2.449 7.047,-3.698 9.546,-3.698 0.5,0 1.999,0.199 4.548,0.6 2.549,0.399 4.048,0.6 4.548,0.6 1.899,0 6.547,-1.399 13.944,-4.148 8.247,-3.199 13.645,-5.248 16.194,-6.147 1.299,-0.45 4.048,-2.899 8.197,-7.247 3.448,-3.648 5.498,-5.998 6.097,-6.947 0,0 0,0 -0.05,-0.051 -0.3,-0.249 -0.6,-0.549 -0.899,-0.85 -0.05,-0.549 -0.15,-1.1 -0.2,-1.699 -0.35,-3.299 -0.899,-7.946 -1.549,-13.895 -0.35,0.051 -0.7,0.101 -1.05,0.25 -0.299,0.102 -0.549,0.202 -0.799,0.251 l 0,0 z" /><path
     style="fill:#cdcbcc"
     inkscape:connector-curvature="0"
     id="path59"
     d="m 209.516,166.462 c -3.049,-1.15 -5.797,-2.85 -8.197,-4.998 -0.6,0.949 -2.649,3.299 -6.097,6.947 -4.148,4.348 -6.897,6.797 -8.197,7.247 -2.549,0.899 -7.947,2.948 -16.194,6.147 -7.397,2.749 -12.045,4.148 -13.944,4.148 -0.5,0 -1.999,-0.2 -4.548,-0.6 -2.549,-0.4 -4.049,-0.6 -4.548,-0.6 -2.499,0 -5.698,1.249 -9.546,3.697 -3.998,2.55 -7.447,3.898 -10.296,4.1 -1.849,0.1 -6.247,0.749 -13.294,1.949 -6.547,1.1 -11.346,1.648 -14.395,1.648 -2.849,0 -4.848,-0.85 -5.998,-2.498 -0.75,-1.051 -1.299,-2.899 -1.599,-5.498 -0.35,-2.749 -0.75,-4.549 -1.25,-5.398 -0.899,-1.6 -2.549,-2.349 -4.998,-2.199 -1.75,0.051 -3.798,-0.899 -6.147,-2.948 -2.399,-2.099 -4.298,-3.149 -5.648,-3.149 -0.45,0 -2.749,0.5 -6.897,1.5 -4.148,1 -6.248,1.5 -6.348,1.5 -1.449,0 -2.999,-0.301 -4.598,-0.9 -1.599,-0.6 -2.599,-0.899 -2.999,-0.899 -0.85,0 -3.549,0.8 -7.997,2.448 -4.448,1.65 -7.747,2.449 -9.996,2.449 -1.549,0 -2.699,-0.549 -3.548,-1.699 -0.3,-0.449 -0.85,-1.699 -1.699,-3.748 -1.5,-3.648 -4.199,-5.447 -8.097,-5.447 -0.55,0 -4.898,0.699 -13.145,2.099 -8.247,1.4 -12.945,2.099 -14.194,2.099 -3.548,0 -6.098,-1.148 -7.697,-3.448 -1.1,-1.599 -1.949,-4.349 -2.599,-8.247 l -0.4,0 c -0.35,16.094 -1.149,38.885 -2.299,68.322 l 0,2.449 c 1.949,0.15 5.897,-0.1 11.745,-0.749 5.248,-0.601 8.997,-0.95 11.195,-1.05 l 0,-0.05 c 0,-1.1 4.598,-1.05 13.795,0.149 10.446,1.6 16.893,2.549 19.342,2.899 2.049,0.3 4.848,0.399 8.396,0.249 5.548,-0.149 8.946,-0.249 10.296,-0.249 5.897,0.05 18.692,0.85 38.435,2.448 10.146,0.85 18.692,1.45 25.59,1.85 4.548,-1.898 9.446,-4.098 14.594,-6.646 6.047,-3 12.245,-6.348 18.542,-9.996 5.048,-3 7.597,-4.498 7.647,-4.498 1.299,0.398 2.599,0.799 3.898,1.199 1.349,0.399 2.499,0.699 3.449,0.949 2.399,-1.35 9.346,-3.998 20.892,-7.947 13.145,-4.498 20.192,-7.396 21.141,-8.695 1.75,-2.25 4.548,-5.049 8.397,-8.348 2.649,-2.249 4.498,-4.898 5.498,-7.847 -0.25,-0.749 -0.6,-1.449 -0.95,-2.099 -1.499,-2.85 -3.448,-6.197 -5.797,-10.146 -2.348,-3.947 -5.247,-6.546 -8.696,-7.896 l 0,0 z" /><path
     style="fill:#999999"
     inkscape:connector-curvature="0"
     id="path61"
     d="m 165.584,218.492 c -1.3,-0.4 -2.599,-0.8 -3.898,-1.199 -0.05,0 -2.599,1.498 -7.647,4.498 -6.298,3.648 -12.495,6.996 -18.542,9.996 -5.148,2.549 -10.046,4.748 -14.594,6.646 6.197,0.35 11.045,0.5 14.544,0.5 11.146,0 25.69,-1.399 43.633,-4.198 3.049,-0.499 5.998,-0.95 8.846,-1.3 3.849,-3.498 6.797,-5.897 8.747,-7.146 1.75,-1.1 4.598,-3.249 8.546,-6.447 4.548,-3.648 7.497,-6.298 8.847,-7.947 1.549,-1.85 4.048,-4.049 7.547,-6.498 3.449,-2.348 5.898,-3.697 7.347,-3.998 -1.1,-1.449 -2.649,-2.199 -4.598,-2.248 0.55,-1.15 1,-2 1.25,-2.6 0.4,-1.05 0.6,-2.249 0.6,-3.699 0,-2.049 -0.4,-4.148 -1.25,-6.247 -1,2.948 -2.849,5.599 -5.498,7.847 -3.849,3.299 -6.647,6.098 -8.397,8.348 -0.949,1.299 -7.997,4.197 -21.141,8.695 -11.545,3.949 -18.493,6.598 -20.892,7.947 -0.951,-0.251 -2.101,-0.551 -3.45,-0.95 l 0,0 z" /><path
     style="fill:#cdcbcc"
     inkscape:connector-curvature="0"
     id="path63"
     d="m 235.806,231.686 c 0,-0.05 1,-3.099 2.949,-9.246 1.45,-4.499 2.349,-7.597 2.799,-9.247 -0.55,-0.499 -1.349,-1.049 -2.399,-1.699 -2.249,-1.35 -3.548,-2.248 -3.948,-2.698 l -3.549,0 c -0.1,-0.101 -0.2,-0.2 -0.3,-0.3 -0.2,-0.2 -0.4,-0.4 -0.65,-0.6 -0.2,-0.25 -0.399,-0.45 -0.649,-0.65 -0.45,-0.449 -0.9,-0.949 -1.45,-1.449 l 0.6,0 0.85,1.449 0.649,-0.05 c -0.05,-1.05 -0.25,-2.199 -0.6,-3.398 -0.3,-0.95 -0.7,-1.749 -1.149,-2.399 -1.449,0.301 -3.898,1.65 -7.347,3.998 -3.499,2.449 -5.998,4.648 -7.547,6.498 -1.35,1.649 -4.298,4.299 -8.847,7.947 -3.948,3.198 -6.797,5.348 -8.546,6.447 -1.949,1.249 -4.898,3.648 -8.747,7.146 13.544,-1.949 23.991,-2.949 31.337,-2.949 0.9,0 2.799,0.15 5.698,0.4 3.199,0.25 5.598,0.55 7.247,0.8 l 3.599,0 0,0 z" /><path
     style="fill:#999999"
     inkscape:connector-curvature="0"
     id="path65"
     d="m 544.333,14.073 c -2.449,-1.449 -4.448,-2.199 -6.098,-2.199 -1.749,0 -3.349,1.2 -4.848,3.549 -1.65,2.599 -2.85,3.998 -3.549,4.248 -2.949,-4.798 -4.898,-7.197 -5.798,-7.197 -2.1,0 -4.648,2.399 -7.697,7.197 -2.449,3.849 -3.898,7.097 -4.448,9.646 l -0.25,-0.55 c -1.399,0.3 -2.849,1.349 -4.298,3.099 -1.05,1.25 -1.8,2.449 -2.249,3.499 -0.899,-0.65 -2.299,-2.049 -4.248,-4.198 -1.45,-1.6 -2.499,-2.399 -3.249,-2.399 -0.649,0 -1.449,1.149 -2.299,3.398 -0.75,1.949 -1.1,3.249 -1.1,3.798 l 0,0.6 c -1.55,-2 -3.749,-6.397 -6.598,-13.145 -2.049,-4.898 -4.099,-7.347 -6.048,-7.347 -1.999,0 -4.148,2.149 -6.497,6.397 -2.749,4.948 -3.549,10.046 -2.499,15.294 -0.8,-1.35 -1.399,-2.249 -1.85,-2.649 -0.25,-0.25 -0.5,-0.35 -0.85,-0.35 -0.149,0 -1.049,0.7 -2.698,2.149 -1.6,1.399 -2.6,2.099 -2.999,2.099 -0.101,0 -0.75,-0.4 -1.999,-1.2 -1.25,-0.85 -1.949,-1.249 -2,-1.249 -2.148,0 -3.349,2.799 -3.599,8.346 0.2,5.998 0.301,9.446 0.301,10.296 -2.149,1.45 -3.349,4.398 -3.699,8.896 -0.25,3.349 -0.1,5.798 0.45,7.447 0.1,0 0.2,0 0.25,0 l 0,0.6 c -0.101,-0.2 -0.2,-0.4 -0.25,-0.6 -0.25,-0.05 -0.55,-0.15 -0.95,-0.3 -0.6,-0.2 -0.999,-0.3 -1.249,-0.3 -0.399,1.949 -0.6,5.248 -0.6,9.896 l 6.997,0 c 0.5,-0.6 1.199,-0.9 2.049,-0.9 0.45,0 0.95,0.3 1.6,0.9 l 3.249,0 c 3.198,-9.247 5.447,-15.594 6.797,-18.993 1.399,-3.599 2.6,-5.198 3.549,-4.848 4.248,6.797 6.598,14.744 7.047,23.841 l 14.744,0 c 0.351,-2.899 0.899,-6.348 1.649,-10.346 1.899,-9.796 4.099,-15.294 6.598,-16.493 0,0.25 0.1,0.45 0.3,0.55 0.1,0.05 0.2,0.05 0.3,0.05 1.25,3.599 2.299,6.647 3.099,9.096 1.55,4.599 2.299,7.597 2.299,9.046 l 0.601,0 c 0.199,-0.6 0.85,-4.298 1.898,-11.045 0.8,-4.898 2.399,-9.046 4.748,-12.495 0.301,0.15 0.75,0.65 1.4,1.399 0.549,0.7 1.199,1.649 1.999,2.849 1.249,1.949 2.099,3.398 2.448,4.448 l 0.15,0.1 c -0.15,-0.7 -0.75,-3.099 -1.799,-7.147 -1.2,-4.748 -1.8,-8.047 -1.8,-9.796 0,-0.25 0.3,-1.75 0.85,-4.498 0.649,-3.099 1.149,-5.298 1.55,-6.598 1.649,0.1 4.148,1.999 7.547,5.748 2.948,3.199 4.848,5.698 5.748,7.497 0,-1.1 -0.4,-2.849 -1.2,-5.198 -0.8,-2.349 -1.199,-3.648 -1.199,-3.849 0,-0.55 0.2,-1.699 0.6,-3.349 0.4,-1.65 0.6,-2.499 0.6,-2.649 0.95,-0.3 1.749,-0.15 2.35,0.5 1.149,1.25 1.949,1.999 2.299,2.349 l 0.149,-0.45 c 0,-0.649 -0.199,-2.299 -0.6,-4.948 -0.399,-2.699 -0.6,-4.298 -0.6,-4.748 0,-0.55 0.1,-1.649 0.3,-3.399 0.2,-1.749 0.3,-2.849 0.3,-3.199 l 4.799,0 0.1,-0.196 0,0 z" /><path
     style="fill:#999999"
     inkscape:connector-curvature="0"
     id="path67"
     d="m 440.923,74.549 c -1.699,0 -3.448,1.6 -5.248,4.798 -0.249,0.55 -0.499,1.049 -0.699,1.5 l 15.644,0 c -0.949,-1.2 -1.85,-2.299 -2.799,-3.299 -1.949,-1.999 -4.248,-2.999 -6.898,-2.999 l 0,0 z" /><path
     style="fill:#999999"
     inkscape:connector-curvature="0"
     id="path69"
     d="m 450.82,81.146 c -0.05,-0.1 -0.15,-0.2 -0.2,-0.3 l -15.644,0 c -1.199,2.549 -1.899,4.048 -2.149,4.498 -1.499,-1.149 -2.698,-1.999 -3.648,-2.599 -1.749,-1.049 -3.249,-1.599 -4.548,-1.599 -5.048,0 -8.547,0.4 -10.546,1.199 -3.998,1.649 -5.998,5.148 -5.998,10.496 0,1.749 0.101,3.548 0.351,5.498 0.35,2.699 0.8,4.398 1.449,5.048 l 0,0.6 c -0.45,-0.3 -1.1,-1.05 -1.85,-2.199 -0.749,-1.05 -1.1,-1.749 -1.149,-2.049 -1.3,0.4 -2.399,1.7 -3.349,3.849 -0.85,1.999 -1.1,3.548 -0.85,4.598 -4.648,-0.4 -7.497,-0.6 -8.497,-0.6 -1.648,0 -3.349,1.399 -5.147,4.248 -1.949,3.499 -3.448,5.898 -4.498,7.247 -0.45,0.55 -0.95,0.85 -1.6,0.9 -0.75,0 -1.399,0 -1.85,0.05 -1.699,0.15 -3.349,1.649 -4.947,4.448 -1.649,2.849 -2.649,6.048 -3.049,9.546 -0.25,1.75 -0.4,3.35 -0.55,4.898 -0.65,0.9 -1.649,2.799 -3.099,5.648 -1.3,2.598 -2.05,4.348 -2.249,5.197 0.749,-0.051 1.749,0 2.948,0.05 0.75,-2.149 1.6,-4.198 2.599,-6.197 1.949,-3.948 3.849,-5.897 5.798,-5.897 0.55,0 1.85,0.5 3.898,1.499 1.999,0.999 3.399,1.499 4.198,1.499 1.25,0 2.799,-2.498 4.748,-7.496 1.949,-5.048 3.999,-7.547 6.098,-7.547 0.6,0 1.449,0.5 2.549,1.5 0.351,0.35 0.85,0.799 1.45,1.449 -0.15,-0.25 -0.2,-0.4 -0.2,-0.45 -0.25,-0.6 -0.4,-1.25 -0.4,-1.899 0,-1.749 2.199,-5.548 6.598,-11.396 4.898,-6.447 8.997,-9.696 12.295,-9.696 0.5,0 1.2,0.2 2.149,0.6 0.899,0.4 1.6,0.6 2.1,0.6 0.399,0 1.599,-0.799 3.599,-2.349 1.999,-1.599 3.548,-2.449 4.598,-2.499 0.15,0 1.35,0.2 3.549,0.55 2.398,0.1 4.198,-0.5 5.447,-1.749 l 4.799,0 c -0.051,-1.699 0.05,-3.449 0.3,-5.198 0.6,-4.298 1.899,-7.147 3.898,-8.597 l 1.199,1.2 0,0.649 0.5,0 c 0.05,-0.55 0.25,-1.1 0.6,-1.599 0.55,-0.85 1.399,-1.5 2.549,-2.049 0,0.2 0.101,0.7 0.3,1.5 0.101,0.35 0.2,0.7 0.25,0.95 l 0.05,-0.05 c 0.75,-3.048 1.35,-4.998 1.8,-5.748 0.1,-0.2 0.199,-0.4 0.35,-0.55 l -6.997,0 c -0.002,0.099 -0.002,0.199 -0.002,0.298 l 0,0 z" /><path
     style="fill:#999999"
     inkscape:connector-curvature="0"
     id="path71"
     d="m 496.601,83.646 c 0.05,-0.85 0.15,-1.799 0.25,-2.799 l -14.744,0 c 0.05,1.449 0.101,2.949 0.05,4.498 0.15,-0.05 0.7,-0.65 1.75,-1.799 0.749,-0.8 1.649,-1.2 2.799,-1.2 1.1,0 1.699,0.05 1.849,0.15 0.101,0.1 0.4,0.85 0.85,2.249 0.25,-0.4 0.55,-1 0.851,-1.799 0.249,-0.6 0.699,-1.1 1.249,-1.549 0.1,-0.1 0.2,-0.2 0.3,-0.25 l 0,0.6 c 0.4,0.8 0.6,1.999 0.6,3.599 0.3,-0.2 0.8,-0.55 1.55,-1.1 0.749,-0.45 1.499,-0.7 2.149,-0.7 l 0.497,0.1 0,0 z" /><path
     style="fill:#999999"
     inkscape:connector-curvature="0"
     id="path73"
     d="m 464.714,80.847 -3.249,0 c 0.35,0.399 0.8,0.899 1.25,1.549 0.799,1.149 1.299,2.149 1.449,2.999 l 0,-3.049 c 0.15,-0.5 0.35,-1 0.55,-1.499 l 0,0 z" /><path
     style="fill:#7b7b7b"
     inkscape:connector-curvature="0"
     id="path75"
     d="m 568.772,26.718 c 0.051,-0.05 0.101,-0.15 0.15,-0.2 -1,-1.349 -1.999,-2.049 -2.949,-2.049 -0.649,0.4 -1.399,0.799 -2.249,1.199 -1.649,0.8 -3.099,1.2 -4.348,1.2 -0.8,-1.35 -2.449,-3.199 -4.898,-5.448 -2.349,-2.149 -4.698,-3.949 -7.147,-5.448 l -0.1,0.1 c -0.35,-0.25 -0.699,-0.5 -1.05,-0.75 -0.649,-0.35 -1.299,-0.7 -1.949,-1.049 l -4.798,0 c 0,0.35 -0.1,1.449 -0.3,3.198 -0.2,1.75 -0.3,2.849 -0.3,3.399 0,0.45 0.2,2.049 0.6,4.748 0.4,2.649 0.6,4.298 0.6,4.948 l 0,0.6 c -0.05,-0.05 -0.1,-0.1 -0.149,-0.15 -0.351,-0.35 -1.149,-1.1 -2.3,-2.349 -0.6,-0.65 -1.398,-0.8 -2.349,-0.5 0,0.15 -0.2,1 -0.6,2.649 -0.4,1.649 -0.6,2.799 -0.6,3.349 0,0.2 0.399,1.5 1.199,3.849 0.8,2.349 1.199,4.098 1.199,5.198 -0.899,-1.799 -2.799,-4.298 -5.747,-7.497 -3.398,-3.749 -5.897,-5.647 -7.547,-5.748 -0.4,1.3 -0.9,3.499 -1.55,6.598 -0.55,2.749 -0.85,4.248 -0.85,4.498 0,1.749 0.6,5.048 1.8,9.796 1.049,4.048 1.648,6.447 1.799,7.147 0,0.1 0,0.15 0,0.2 l 0,0.6 c 0,-0.25 -0.05,-0.55 -0.15,-0.899 -0.35,-1.05 -1.199,-2.499 -2.448,-4.448 -0.8,-1.2 -1.45,-2.149 -2,-2.849 -0.649,-0.75 -1.099,-1.249 -1.399,-1.399 -2.349,3.449 -3.948,7.597 -4.748,12.495 -1.049,6.747 -1.699,10.446 -1.898,11.046 l -0.601,0 c 0,-1.45 -0.749,-4.448 -2.299,-9.047 -0.8,-2.449 -1.85,-5.498 -3.099,-9.096 -0.1,0 -0.2,0 -0.3,-0.05 -0.2,-0.1 -0.3,-0.3 -0.3,-0.55 -2.499,1.2 -4.698,6.697 -6.598,16.493 -1.05,5.398 -1.649,9.796 -1.899,13.145 -0.05,0.6 -0.05,1.199 -0.05,1.749 -0.149,-0.85 -0.3,-1.499 -0.449,-1.849 -0.65,0 -1.4,0.25 -2.149,0.7 -0.75,0.55 -1.25,0.899 -1.55,1.1 0,-1.6 -0.199,-2.799 -0.6,-3.599 l -0.3,-0.35 c -0.55,0.45 -1,0.949 -1.25,1.549 -0.3,0.799 -0.6,1.399 -0.85,1.799 -0.449,-1.399 -0.749,-2.149 -0.85,-2.249 -0.149,-0.1 -0.749,-0.15 -1.849,-0.15 -1.149,0 -2.05,0.4 -2.799,1.2 -1.05,1.149 -1.6,1.75 -1.75,1.799 0.25,-10.996 -2.148,-20.442 -7.097,-28.339 -0.95,-0.35 -2.149,1.25 -3.549,4.848 -1.4,3.598 -3.849,10.446 -7.347,20.492 l 0,3.049 c -0.15,-0.85 -0.65,-1.849 -1.449,-2.999 -1.15,-1.649 -2.1,-2.449 -2.85,-2.449 -1.1,0 -1.898,0.5 -2.398,1.45 -0.45,0.75 -1.05,2.699 -1.8,5.748 l 0,0.6 c 0,-0.15 0,-0.3 -0.05,-0.55 -0.05,-0.25 -0.149,-0.6 -0.25,-0.95 -0.2,-0.8 -0.3,-1.299 -0.3,-1.499 -1.149,0.55 -1.999,1.199 -2.549,2.049 -0.35,0.5 -0.55,1.05 -0.6,1.6 -0.05,0.15 -0.05,0.35 -0.05,0.55 l 135.046,0 c 0.449,-4.548 0.699,-7.597 0.699,-9.046 0,-16.244 -3.398,-28.389 -10.195,-36.536 -0.65,-0.8 -2.999,-3.099 -7.048,-6.897 -2.148,-2.049 -3.198,-3.898 -3.198,-5.598 0.004,-0.802 0.554,-2.202 1.603,-4.151 l 0,0 z" /><path
     style="fill:#7b7b7b"
     inkscape:connector-curvature="0"
     id="path77"
     d="m 451.419,87.744 -1.199,-1.2 c -0.8,0.55 -1.5,1.35 -2.05,2.399 l 3.249,0 0,-0.55 0,-0.649 0,0 z" /><path
     style="fill:#7b7b7b"
     inkscape:connector-curvature="0"
     id="path79"
     d="m 451.87,88.943 c 0,0.4 0.05,0.8 0.199,1.199 l -0.649,0.6 0,-1.799 -3.249,0 c -0.85,1.549 -1.499,3.599 -1.849,6.197 -0.25,1.75 -0.351,3.499 -0.3,5.198 l 0,1.199 c -0.051,-0.399 -0.051,-0.8 0,-1.199 l -4.799,0 c -1.249,1.25 -3.049,1.849 -5.447,1.749 -2.199,-0.35 -3.398,-0.55 -3.549,-0.55 -1.05,0.05 -2.599,0.9 -4.598,2.499 -2,1.549 -3.199,2.349 -3.599,2.349 -0.5,0 -1.2,-0.2 -2.1,-0.6 -0.949,-0.4 -1.649,-0.6 -2.149,-0.6 -3.299,0 -7.396,3.249 -12.295,9.696 -4.398,5.848 -6.598,9.646 -6.598,11.396 0,0.649 0.15,1.299 0.4,1.899 0,0.05 0.05,0.2 0.2,0.45 0.35,0.35 0.749,0.799 1.199,1.25 l -0.6,0 c -0.25,-0.55 -0.45,-1 -0.6,-1.25 -0.601,-0.65 -1.1,-1.1 -1.45,-1.45 -1.1,-1 -1.949,-1.499 -2.549,-1.499 -2.099,0 -4.148,2.499 -6.098,7.547 -1.949,4.998 -3.498,7.496 -4.748,7.496 -0.8,0 -2.199,-0.5 -4.198,-1.499 -2.049,-0.999 -3.349,-1.499 -3.898,-1.499 -1.949,0 -3.849,1.949 -5.798,5.896 -0.999,2 -1.849,4.049 -2.599,6.198 -1.199,-0.05 -2.199,-0.101 -2.948,-0.05 -0.051,0.15 -0.051,0.25 -0.051,0.35 0,1.449 0.85,2.398 2.499,2.85 1.05,0.249 3.249,0.449 6.498,0.499 7.196,0.149 12.994,1.05 17.393,2.749 6.197,-0.65 12.445,-1 18.742,-1 7.747,0 20.692,1.199 38.885,3.6 18.143,2.398 31.188,3.598 39.135,3.598 22.69,-0.799 34.536,-1.199 35.535,-1.199 11.546,0 18.143,0.05 19.742,0.15 1.949,0.149 7.747,0.898 17.394,2.248 l 14.994,0 c 0,-4.398 1.599,-18.492 4.848,-42.333 1.949,-14.494 3.299,-25.29 4.099,-32.337 l -135.044,0 0,0.002 z" /><path
     style="fill:#999999"
     inkscape:connector-curvature="0"
     id="path81"
     d="m 561.475,121.48 0.051,-1.8 -19.942,0 c -3.049,0.4 -9.296,0.9 -18.843,1.5 -2.148,0.15 -4.198,0.25 -6.147,0.35 -6.247,0.35 -11.346,0.5 -15.194,0.55 -0.499,0 -0.949,0 -1.398,0 -15.895,-0.05 -33.487,-1.05 -52.729,-2.999 -0.8,1.6 -1.85,3.749 -3.099,6.448 -2.399,4.948 -3.599,7.697 -3.648,8.246 0,0.301 0.399,0.95 1.149,1.9 0.75,0.949 1.149,1.998 1.1,3.248 -2.549,-0.1 -5.148,0 -7.797,0.35 -3.448,0.4 -5.498,1.1 -6.147,2.049 -2.549,3.6 -3.898,9.047 -4.148,16.294 0,0.45 0.05,2.3 0.15,5.647 0.1,3.35 0.149,5.498 0.1,6.398 -0.75,-0.801 -1.749,-1.2 -2.949,-1.2 -3.148,0 -6.747,0.8 -10.745,2.449 -3.249,1.55 -5.848,2.749 -7.797,3.548 -0.55,0.25 -1.1,0.45 -1.55,0.6 l 0.15,-4.197 c -1.15,-2.399 -1.8,-4.998 -2,-7.747 -0.05,-0.75 -0.1,-2.099 -0.05,-3.999 0.101,-2.748 0.95,-7.097 2.549,-13.145 1.55,-6.047 2.399,-10.896 2.55,-14.594 0,-0.5 -0.2,-1.15 -0.55,-1.949 -0.351,-0.8 -0.55,-1.45 -0.55,-1.949 0.05,-2.049 1.299,-4.698 3.748,-7.897 1.6,-2.049 2.699,-3.599 3.299,-4.648 -15.394,-1.7 -26.14,-2.549 -32.188,-2.549 -1.35,0.05 -2.749,0.2 -4.198,0.45 -0.449,0.05 -0.899,0.15 -1.249,0.25 -0.35,0.3 -0.6,0.6 -0.85,0.85 -0.351,0.399 -0.7,0.799 -1,1.199 -1.649,2.149 -2.449,4.548 -2.449,7.197 0,0.649 0.25,1.749 0.8,3.199 0.55,1.449 0.8,2.549 0.8,3.199 0,0.649 -0.5,1.599 -1.449,2.849 -0.75,0.95 -0.8,1.699 -0.15,2.349 -2.049,0.85 -3.349,2.1 -3.798,3.849 -0.3,1.149 -0.3,3.099 0.05,5.747 0.85,6.748 0.25,12.096 -1.85,15.994 l 0.101,0.05 c -0.9,0.2 -2.35,0.649 -4.398,1.35 -2.899,0.999 -4.448,1.499 -4.599,1.499 -1.899,0 -2.998,0.1 -3.349,0.301 -0.949,0.5 -1.699,1.998 -2.199,4.498 l -5.197,0 c -0.05,0.25 -0.05,0.449 -0.05,0.649 -0.15,0.85 -0.2,1.449 -0.2,1.8 -1.149,0.049 -2.3,0.449 -3.499,1.1 -1.499,0.85 -2.398,1.849 -2.648,3.098 -0.55,0 -1.949,-0.5 -4.299,-1.449 -2.349,-1 -3.948,-1.499 -4.698,-1.549 0,0.35 -0.1,0.899 -0.35,1.549 -0.25,0.65 -0.35,1.199 -0.35,1.75 -0.05,0.5 0.149,1.449 0.5,2.898 0.35,1.449 0.55,2.398 0.499,2.898 -0.05,0.95 -1.648,3.898 -4.798,8.747 -1.249,1.949 -2.449,3.648 -3.498,4.997 l 0.1,0.051 c 2.699,-0.1 6.747,-0.9 12.195,-2.398 5.848,-1.6 8.896,-2.4 9.046,-2.4 0.7,0 1.2,0.4 1.55,1.2 0.25,0.7 0.3,1.3 0.149,1.8 0.4,0 0.601,-0.201 0.601,-0.6 0.35,0.199 0.799,0.6 1.349,1.249 0.351,0.35 0.85,0.55 1.6,0.55 0.5,0 1.699,-0.2 3.599,-0.6 1.949,-0.4 3.148,-0.6 3.648,-0.6 1.55,0 2.899,0.399 3.948,1.199 1.1,0.799 2.249,1.199 3.499,1.199 0.5,0 1.449,-0.199 2.799,-0.6 1.35,-0.401 2.249,-0.6 2.749,-0.6 0.6,0 1.249,0.799 1.999,2.398 0.75,1.599 1.399,2.399 2.049,2.399 0.601,0 1.7,-0.399 3.349,-1.2 1.649,-0.799 2.649,-1.199 2.999,-1.199 1.5,0 2.35,1 2.6,3.049 0.199,2 1.399,2.999 3.548,2.999 0.55,0 2.449,-0.899 5.698,-2.698 3.299,-1.85 5.997,-2.75 8.097,-2.75 1.649,0 3.248,0.6 4.698,1.8 1.499,1.2 3.398,1.8 5.697,1.8 1.899,0 4.099,-1.3 6.598,-3.898 1.449,-1.449 3.648,-3.749 6.697,-6.898 2.399,-1.998 7.847,-3.398 16.394,-4.197 2.099,-0.15 5.147,-0.9 9.196,-2.149 5.198,-1.649 7.847,-3.249 7.896,-4.849 0,-0.5 -0.2,-1.449 -0.55,-2.848 -0.35,-1.4 -0.5,-2.35 -0.5,-2.85 0.101,-2.6 1.399,-3.849 3.949,-3.799 0.749,0.051 1.949,0.15 3.648,0.35 1.599,0.15 2.948,0.101 4.048,-0.149 1,-3.448 4.698,-5.298 11.146,-5.548 4.998,-0.15 7.598,-0.25 7.797,-0.25 2.85,-0.3 5.048,-1 6.498,-2.049 1.299,-0.949 2.948,-1.699 4.947,-2.299 1.05,-0.301 2.649,-0.75 4.799,-1.3 3.648,-1.2 6.197,-3.999 7.547,-8.396 1.649,-5.349 3.698,-9.196 6.098,-11.546 0.899,-0.899 1.849,-1.6 2.849,-2.049 2.299,-1.05 6.547,-2 12.694,-2.749 3.35,-0.85 7.947,-2.449 13.795,-4.898 3.249,-1.35 7.997,-3.299 14.194,-5.897 l 3.694,0 0,-0.002 z" /><path
     style="fill:#cdcbcc"
     inkscape:connector-curvature="0"
     id="path83"
     d="m 557.777,121.48 c -6.197,2.599 -10.945,4.548 -14.194,5.897 -5.848,2.449 -10.445,4.048 -13.795,4.898 -6.147,0.749 -10.396,1.699 -12.694,2.749 -1,0.449 -1.949,1.149 -2.849,2.049 -2.399,2.35 -4.448,6.197 -6.098,11.545 -1.35,4.398 -3.898,7.197 -7.547,8.397 -2.149,0.55 -3.749,0.999 -4.799,1.3 -1.999,0.6 -3.648,1.35 -4.947,2.299 -1.45,1.049 -3.648,1.749 -6.498,2.049 -0.199,0 -2.799,0.1 -7.797,0.25 -6.447,0.25 -10.146,2.1 -11.146,5.548 -1.1,0.25 -2.449,0.3 -4.048,0.149 -1.699,-0.199 -2.899,-0.299 -3.648,-0.35 -2.55,-0.05 -3.849,1.199 -3.949,3.799 0,0.5 0.15,1.449 0.5,2.849 0.35,1.4 0.55,2.349 0.55,2.849 -0.05,1.6 -2.698,3.199 -7.896,4.848 -4.049,1.25 -7.098,2 -9.196,2.15 -8.547,0.799 -13.994,2.199 -16.394,4.197 -3.049,3.149 -5.248,5.448 -6.697,6.898 -2.499,2.598 -4.698,3.898 -6.598,3.898 -2.299,0 -4.198,-0.601 -5.697,-1.8 -1.45,-1.2 -3.049,-1.8 -4.698,-1.8 -2.1,0 -4.798,0.9 -8.097,2.75 -3.249,1.799 -5.148,2.698 -5.698,2.698 -2.148,0 -3.349,-0.999 -3.548,-2.999 -0.25,-2.049 -1.1,-3.049 -2.6,-3.049 -0.35,0 -1.35,0.4 -2.999,1.199 -1.648,0.801 -2.748,1.2 -3.349,1.2 -0.649,0 -1.299,-0.8 -2.049,-2.399 -0.75,-1.599 -1.399,-2.398 -1.999,-2.398 -0.5,0 -1.399,0.199 -2.749,0.6 -1.35,0.401 -2.299,0.6 -2.799,0.6 -1.25,0 -2.399,-0.4 -3.499,-1.199 -1.049,-0.8 -2.398,-1.199 -3.948,-1.199 -0.5,0 -1.699,0.199 -3.648,0.6 -1.899,0.399 -3.099,0.6 -3.599,0.6 -0.75,0 -1.249,-0.2 -1.6,-0.551 -0.55,-0.648 -0.999,-1.049 -1.349,-1.248 0,0.398 -0.2,0.6 -0.601,0.6 0.15,-0.5 0.101,-1.1 -0.149,-1.8 -0.35,-0.8 -0.85,-1.2 -1.55,-1.2 -0.149,0 -3.198,0.801 -9.046,2.4 -5.448,1.498 -9.496,2.299 -12.195,2.398 -0.05,0 -0.1,0 -0.149,0 -0.051,0.05 -0.101,0.15 -0.15,0.25 -1.649,2.049 -2.999,3.398 -4.099,3.948 -1.299,0.7 -2.299,1.749 -3.049,3.198 -0.55,0.95 -0.949,2.1 -1.249,3.398 -0.6,2.449 -1.55,4.199 -2.799,5.299 0.85,-0.051 1.749,-0.051 2.648,0.1 1.999,0.25 4.198,1 6.598,2.148 4.598,2.25 8.696,3.399 12.345,3.399 0.101,0 6.048,-1.3 17.793,-3.948 18.442,1.449 31.138,3.349 38.185,5.697 7.048,2.35 12.945,3.148 17.793,2.299 4.849,-0.85 6.498,-1.799 4.849,-2.898 -1.649,-1.099 3.698,-1.898 16.043,-2.449 12.346,-0.549 16.743,-1.049 13.245,-1.549 -3.549,-0.5 4.548,-1.649 24.391,-3.398 15.644,-1.4 24.64,-2.05 27.039,-2 2.599,-0.6 4.798,-1.749 6.597,-3.498 1.85,-1.75 1.949,-3.049 0.3,-3.998 7.048,-11.445 13.945,-17.844 20.742,-19.193 0.55,-0.149 1.1,-0.199 1.649,-0.25 7.347,-0.648 12.694,-0.749 16.043,-0.35 3.399,0.4 5.349,0.6 5.848,0.6 4.049,0 8.097,-1.398 12.146,-4.248 1.85,-1.35 3.099,-2.199 3.698,-2.599 0.65,-6.497 1.8,-12.646 3.399,-18.493 l 1.049,-33.736 -3.699,0 0,0 z" /><path
     style="fill:#999999"
     inkscape:connector-curvature="0"
     id="path85"
     d="m 535.335,179.957 c -3.349,-0.399 -8.696,-0.3 -16.043,0.35 -0.55,0.051 -1.1,0.101 -1.649,0.25 -6.798,1.35 -13.694,7.748 -20.742,19.193 1.649,0.949 1.55,2.248 -0.3,3.998 -1.799,1.749 -3.998,2.898 -6.597,3.498 0.649,0 0.799,0.051 0.499,0.15 -0.499,0.199 -0.649,0.15 -0.499,-0.15 -2.399,-0.05 -11.396,0.6 -27.04,2 -19.842,1.748 -27.938,2.898 -24.39,3.398 3.498,0.5 -0.899,1 -13.245,1.549 -12.345,0.551 -17.692,1.35 -16.043,2.449 1.649,1.099 0,2.049 -4.849,2.898 -4.848,0.85 -10.745,0.051 -17.793,-2.299 -7.047,-2.35 -19.742,-4.248 -38.185,-5.697 -11.745,2.648 -17.692,3.948 -17.793,3.948 -3.648,0 -7.747,-1.149 -12.345,-3.399 -2.399,-1.148 -4.599,-1.898 -6.598,-2.148 -0.899,-0.15 -1.799,-0.15 -2.648,-0.1 -0.15,0.149 -0.25,0.25 -0.4,0.35 -0.25,0.15 -0.449,0.25 -0.699,0.4 -2.399,1.199 -4.099,4.748 -5.148,10.645 -0.5,2.949 -0.8,5.848 -0.85,8.646 -9.546,1.9 -15.094,3.199 -16.693,3.898 -2.749,1.25 -4.848,3.199 -6.247,5.898 -0.25,0.449 -0.5,0.949 -0.7,1.449 4.748,1.649 10.946,3.049 18.493,4.248 8.746,1.35 16.644,2.049 23.79,2.049 23.141,0 44.482,-1.498 63.975,-4.447 14.044,-2.1 28.839,-5.348 44.433,-9.696 5.697,-1.6 12.845,-3.599 21.441,-5.997 4.098,-1.15 8.546,-2.4 13.294,-3.749 12.346,-2.948 23.94,-4.448 34.887,-4.448 9.246,0 19.642,0.799 31.137,2.398 4.849,0.65 9.347,1.4 13.495,2.199 3.349,0.65 6.497,1.3 9.446,2 l 7.896,0 0.101,-3.6 c -0.051,-0.399 -0.15,-1.398 -0.351,-3.049 -0.449,-2.598 -1.149,-6.746 -2.099,-12.494 -1.449,-8.247 -2.1,-15.943 -1.85,-23.091 0,-2.249 0.15,-5.147 0.5,-8.597 0.05,-0.4 0.05,-0.8 0.1,-1.149 -0.6,0.399 -1.849,1.249 -3.698,2.599 -4.049,2.85 -8.097,4.248 -12.146,4.248 -0.498,0.001 -2.447,-0.198 -5.847,-0.598 l 0,0 z" /><path
     style="fill:#cdcbcc"
     inkscape:connector-curvature="0"
     id="path87"
     d="m 444.172,125.528 c 1.249,-2.699 2.299,-4.848 3.099,-6.447 -5.298,-0.55 -10.695,-1.199 -16.243,-1.849 -7.348,-0.9 -14.045,-1.649 -19.992,-2.299 -0.6,1.05 -1.699,2.599 -3.299,4.648 -2.449,3.199 -3.698,5.848 -3.748,7.896 0,0.5 0.199,1.15 0.55,1.949 0.35,0.8 0.55,1.45 0.55,1.949 -0.15,3.699 -1,8.547 -2.55,14.594 -1.599,6.048 -2.448,10.396 -2.549,13.145 -0.05,1.899 0,3.249 0.05,3.998 0.2,2.75 0.85,5.349 2,7.748 l -0.15,4.197 0.649,-0.6 0.9,0 c 1.949,-0.799 4.548,-1.998 7.797,-3.549 3.998,-1.648 7.597,-2.448 10.745,-2.448 1.2,0 2.199,0.399 2.949,1.2 0.05,-0.9 0,-3.049 -0.1,-6.398 -0.101,-3.348 -0.15,-5.197 -0.15,-5.647 0.25,-7.247 1.6,-12.694 4.148,-16.294 0.649,-0.949 2.699,-1.648 6.147,-2.049 2.648,-0.35 5.248,-0.449 7.797,-0.35 0.05,-1.25 -0.35,-2.299 -1.1,-3.249 -0.75,-0.95 -1.149,-1.599 -1.149,-1.899 0.051,-0.548 1.25,-3.297 3.649,-8.246 l 0,0 z" /><path
     style="fill:#cdcbcc"
     inkscape:connector-curvature="0"
     id="path89"
     d="m 371.551,115.133 c 0.3,-0.4 0.649,-0.8 1,-1.2 0.25,-0.25 0.5,-0.55 0.85,-0.85 -1.55,0.3 -2.749,0.7 -3.599,1.15 -0.05,0.05 -0.05,0.05 -0.101,0.1 l -0.1,-0.15 c -0.649,-0.25 -1.199,-0.4 -1.649,-0.5 -0.449,-0.05 -1.35,-0.1 -2.749,-0.1 -2.049,0 -3.198,0.35 -3.448,1 -0.3,0.899 -0.7,1.799 -1.25,2.649 -0.55,0.85 -1.249,1.649 -2.099,2.449 -1.399,2.049 -2.449,3.549 -3.148,4.499 -1.25,1.649 -2.649,2.149 -4.299,1.5 -0.6,2.099 -1.949,9.545 -4.099,22.34 -1.549,9.447 -2.549,15.844 -2.998,19.193 l 5.197,0 c 0.5,-2.5 1.25,-3.999 2.199,-4.498 0.351,-0.201 1.449,-0.301 3.349,-0.301 0.15,0 1.699,-0.5 4.599,-1.499 2.049,-0.7 3.498,-1.149 4.398,-1.35 l -0.101,-0.05 c 2.1,-3.898 2.699,-9.246 1.85,-15.994 -0.35,-2.648 -0.35,-4.598 -0.05,-5.747 0.449,-1.749 1.749,-2.999 3.798,-3.849 -0.649,-0.65 -0.6,-1.399 0.15,-2.349 0.949,-1.25 1.449,-2.199 1.449,-2.849 0,-0.65 -0.25,-1.75 -0.8,-3.199 -0.55,-1.45 -0.8,-2.549 -0.8,-3.199 0.002,-2.648 0.802,-5.047 2.451,-7.196 l 0,0 z" /><path
     style="fill:#cdcbcc"
     inkscape:connector-curvature="0"
     id="path91"
     d="m 554.428,131.076 c 0.2,0 0.399,0 0.649,0 l 1.6,-10.695 c -1.149,-0.05 -2.299,-0.15 -3.448,-0.2 -194.973,-10.446 -388.795,-10.646 -581.468,-0.5 -0.4,0 -0.799,0 -1.199,0.05 l 0,11.445 c 0.4,-0.05 0.799,-0.05 1.199,-0.05 191.874,-10.995 386.096,-10.995 582.667,-0.05 l 0,0 z" /><path
     style="fill:#999999"
     inkscape:connector-curvature="0"
     id="path93"
     d="m 553.229,120.181 0,-5.348 c -11.246,-0.45 -22.541,-0.85 -33.787,-1.25 -183.976,-6.448 -366.503,-5.998 -547.681,1.349 l 0,4.748 c 192.673,-10.145 386.495,-9.945 581.468,0.501 l 0,0 z" /><path
     style="fill:#6a6a6a"
     inkscape:connector-curvature="0"
     id="path95"
     d="m 554.428,137.024 0,-3.898 c -187.125,-9.146 -377.299,-9.646 -570.472,-1.599 -4.048,0.15 -8.147,0.35 -12.195,0.55 l 0,5.048 c 33.937,-2.199 67.973,-3.999 102.009,-5.448 159.137,-6.748 319.373,-4.949 480.658,5.347 l 0,0 z" /><path
     style="fill:#999999"
     inkscape:connector-curvature="0"
     id="path97"
     d="m 554.428,133.125 0,-2.049 c -196.571,-10.945 -390.793,-10.945 -582.667,0.05 l 0,0.95 c 4.048,-0.2 8.147,-0.4 12.195,-0.55 193.173,-8.047 383.347,-7.547 570.472,1.599 l 0,0 z" /><path
     style="fill:#cdcbcc"
     inkscape:connector-curvature="0"
     id="path99"
     d="m 151.489,24.869 c -0.549,-0.4 -1.199,-0.9 -1.949,-1.5 -0.85,-0.65 -1.449,-1.2 -1.799,-1.6 -38.185,52.729 -88.515,83.567 -151.04,92.463 0.2,0.1 0.399,0.2 0.649,0.3 1.849,0.85 3.049,1.349 3.499,1.599 0.25,0.15 0.5,0.25 0.8,0.4 61.926,-8.995 111.856,-39.533 149.84,-91.662 l 0,0 z" /><path
     style="fill:#cdcbcc"
     inkscape:connector-curvature="0"
     id="path101"
     d="m 131.947,23.22 c -0.85,-0.65 -1.449,-1.2 -1.799,-1.6 -38.185,52.729 -88.515,83.566 -151.04,92.463 0.2,0.1 0.4,0.2 0.65,0.3 1.849,0.85 3.049,1.35 3.499,1.6 0.25,0.15 0.5,0.25 0.8,0.4 61.925,-8.997 111.855,-39.534 149.84,-91.664 -0.55,-0.4 -1.2,-0.9 -1.95,-1.499 l 0,0 z" /><path
     style="fill:#cdcbcc"
     inkscape:connector-curvature="0"
     id="path103"
     d="m 405.188,25.119 c -0.35,0.4 -0.949,0.95 -1.799,1.6 -0.75,0.6 -1.4,1.1 -1.949,1.5 37.984,52.129 87.914,82.667 149.84,91.663 0.3,-0.15 0.55,-0.25 0.8,-0.4 0.449,-0.25 1.649,-0.75 3.498,-1.599 0.25,-0.1 0.45,-0.2 0.649,-0.3 C 493.703,108.686 443.373,77.848 405.188,25.119 l 0,0 z" /><path
     style="fill:#cdcbcc"
     inkscape:connector-curvature="0"
     id="path105"
     d="m 422.781,24.969 c -0.35,0.4 -0.949,0.95 -1.799,1.6 -0.75,0.6 -1.399,1.1 -1.949,1.499 37.984,52.129 87.915,82.667 149.84,91.664 0.3,-0.15 0.55,-0.25 0.8,-0.4 0.449,-0.25 1.649,-0.75 3.498,-1.6 0.25,-0.1 0.45,-0.2 0.65,-0.3 -62.526,-8.897 -112.856,-39.734 -151.04,-92.463 l 0,0 z" /><path
     style="fill:#cdcbcc"
     inkscape:connector-curvature="0"
     id="path107"
     d="m 168.283,10.275 c -6.248,-0.45 -10.696,-0.7 -13.444,-0.8 l -7.097,-0.05 0,0.05 c -1.2,0.1 -2.349,0.2 -3.449,0.25 0.05,0.45 0.2,0.95 0.4,1.5 0.15,0.45 0.2,1.049 0.2,1.799 l 2.299,-0.2 c -0.25,0.95 -0.3,2.949 -0.2,6.098 0.05,3.148 0.05,5.098 0.05,5.897 l -0.45,7.047 c -0.1,0.8 -0.899,8.296 -2.349,22.491 -1.649,16.344 -2.599,29.888 -2.849,40.634 -0.15,5.598 -0.3,9.996 -0.4,13.195 -0.1,2.899 -0.15,4.798 -0.2,5.748 -0.1,1.899 -0.2,4.798 -0.25,8.646 l -0.05,2 c 0.5,-0.15 1.4,-0.4 2.749,-0.65 3.049,-0.65 5.698,-1.25 7.947,-1.849 2.249,-0.599 3.749,-1 4.398,-1.25 -0.05,-1.549 -0.05,-2.999 -0.1,-4.348 l -0.25,0.05 -0.15,0 -0.15,0.15 c -0.05,-0.05 -0.1,-0.15 -0.1,-0.2 l 0,-0.05 -0.05,-0.05 c 0,-0.05 0.05,-0.1 0.1,-0.15 l -0.05,0 c 0,-0.15 0,-0.3 0.05,-0.45 l -0.05,0 0,-0.399 c 0,-0.05 0,-0.1 0.05,-0.15 -0.05,-0.05 -0.05,-0.149 -0.05,-0.2 0,-0.05 0.05,-0.15 0.1,-0.25 l 0,-0.1 0,-0.25 c 0,-0.05 0,-0.05 0.05,-0.05 -0.05,-0.05 -0.05,-0.15 -0.05,-0.2 0,-1.1 0.05,-1.799 0.1,-2.099 0.05,-0.35 0.05,-0.95 0.05,-1.899 -0.05,-0.949 -0.05,-4.798 0,-11.445 0.05,-6.647 1.19286,-10.802044 1.24286,-12.551044 0.05,-1.75 -0.0758,-2.892956 0.0742,-3.342956 0.15,-0.55 -0.0396,-1 0.36043,-1.449 0.399,-0.45 0.62318,-0.27857 1.07418,-0.52857 0.399,-0.3 1.00504,-0.298351 1.95504,-0.748351 0.899,-0.4 1.81109,-0.260438 2.91109,-0.410438 1.75,-0.25 2.84131,-1.217036 3.79131,-1.067036 0.95,0.15 1.00779,0.324176 1.75779,0.973176 0.25,0.15 -0.74286,1.223079 -0.0654,0.97143 l 1.05934,2.400745 c 0.3,5.048 1.38517,10.152044 1.63517,15.500044 0.15,3.749 0.25,6.498 0.25,8.347 l 0.05,4.099 c 0.05,0.35 0.1,0.7 0.15,0.949 -0.05,0.1 -0.05,0.25 0,0.45 0,0.05 0,0.1 0.05,0.15 l -0.2,0 c -0.05,0 -0.05,0 -0.1,0.05 l -0.15,0 -1.2,0.3 c -0.35,0.2 0.35,0.2 2.1,0.05 0.05,0.6 0.05,1.149 0.1,1.649 0.05,1.549 0.1,2.349 0.15,2.399 0.35,0.2 0.5,0.35 0.4,0.4 2.149,-0.45 4.598,-1 7.347,-1.75 2.649,-0.65 4.249,-1.1 4.698,-1.449 -0.15,-2.049 -0.25,-4.048 -0.35,-5.948 -0.899,-14.145 -1.699,-24.64 -2.349,-31.438 -1.649,-17.693 -3.848,-32.437 -6.697,-44.282 0,-0.1 0,-0.2 -0.05,-0.3 0,-0.05 0,-0.1 -0.05,-0.25 0.05,-0.05 0.05,-0.2 0.05,-0.45 -0.05,-0.15 -0.05,-0.25 -0.05,-0.4 0,-2.449 -0.1,-8.197 -0.35,-17.193 2.049,0.3 3.249,0.45 3.699,0.4 0.45,-0.05 0.649,-0.3 0.649,-0.85 l 0.1,-2.399 c -1.052,-0.048 -4.651,-0.298 -10.848,-0.748 z m 1.299,10.096 1.85,0 -0.15,5.298 -0.05,0.1 c -0.05,0.15 -1.049,0.05 -2.949,-0.3 l 0,-0.1 -11.045,0.15 0,-0.2 c -2.249,0.1 -3.449,0.15 -3.499,0.15 -0.55,0.05 -1.1,0.1 -1.649,0.15 -0.6,0.05 -1.2,0.05 -1.85,0.1 -0.25,-0.6 -0.15,-2.549 0.2,-5.798 l 8.197,0.1 0,0.05 c 2.849,0.05 6.197,0.05 9.996,0.1 0.399,-0.05 0.7,0.05 0.949,0.2 z m -4.76151,21.538307 c 0.75,1.2 1.36251,2.851693 2.21251,6.000693 1.2,4.748 2.049,11.445 2.549,20.192 l 0.05,0.05 c -1.1,0.15 -2.249,0.3 -3.499,0.5 l -1.549,0.25 c -0.1,0 -0.2,0 -0.3,0.05 -1.949,0.35 -4.948,1 -8.996,1.899 l 0,-0.15 -0.1,-0.25 c -0.15,-1.6 -0.2,-4.348 -0.05,-8.197 0.15,-5.448 0.45,-9.596 1,-12.545 0.95,-5.398 1.85304,-7.340569 4.15204,-8.390569 l 0.67433,-0.255408 c -0.55947,1.286513 0.82704,-0.174327 0.87704,-0.174327 0.25,-0.05 0.67467,-0.198654 1.62467,0.151346 0.399,0.15 0.95441,0.220265 1.35441,0.869265 z M 154.538,70.851 l -0.05,0 c -0.05,-0.15 -0.05,-0.25 -0.05,-0.4 z"
     sodipodi:nodetypes="ccccccccccccccccccscccccsccccccscsccscsccsccccccscccccccccscccccccccccccccscsccccccccccccccccccccccccccccccccccccccccc" /><path
     style="fill:#999999"
     inkscape:connector-curvature="0"
     id="path109"
     d="m 171.432,20.371 -1.85,0 c -0.25,-0.15 -0.549,-0.25 -0.949,-0.2 -3.799,-0.05 -7.147,-0.05 -9.996,-0.1 l 0,-0.05 -8.197,-0.1 c -0.35,3.249 -0.45,5.198 -0.2,5.798 0.65,-0.05 1.25,-0.05 1.85,-0.1 0.55,-0.05 1.1,-0.1 1.649,-0.15 0.05,0 1.25,-0.05 3.499,-0.15 0,0.05 0,0.15 0,0.2 l 11.045,-0.15 c 0,0.05 0,0.05 0,0.1 1.899,0.35 2.899,0.45 2.949,0.3 l 0.05,-0.1 0.15,-5.298 0,0 z" /><path
     style="fill:#999999"
     inkscape:connector-curvature="0"
     id="path113"
     d="m 154.488,70.851 0.05,0 -0.1,-0.4 c 0,0.15 0,0.25 0.05,0.4 l 0,0 z" /><path
     style="fill:#999999"
     inkscape:connector-curvature="0"
     id="path115"
     d="m 124.5,14.223 c 0.75,-0.15 1.799,-0.15 3.148,0.05 -0.15,0.15 -0.4,2.349 -0.7,6.698 -0.3,4.348 -0.55,7.597 -0.8,9.796 -1.649,11.895 -3.048,21.091 -4.098,27.539 -1.05,6.447 -2.049,13.594 -2.949,21.391 -0.95,7.747 -1.549,12.845 -1.899,15.244 -0.35,2.299 -0.6,4.698 -0.75,7.197 -0.2,2.35 -0.35,4.349 -0.5,6.048 -0.05,0.15 -0.05,0.25 -0.05,0.4 -0.15,1.75 -0.5,4.748 -0.95,8.896 4.848,1.5 7.397,2.249 7.547,2.299 1.149,0.55 2.449,0.85 3.898,1 -0.1,-1.349 -0.15,-2.149 -0.1,-2.299 0.3,-4.048 0.55,-7.447 0.8,-10.296 0.25,-3.648 0.45,-6.248 0.6,-7.847 0.35,-4.448 0.899,-7.347 1.549,-8.697 0.949,0.85 1.349,3.898 1.199,9.046 -0.05,1.949 -0.15,4.448 -0.35,7.497 -0.05,1.5 -0.15,3.149 -0.3,4.898 -0.05,2.249 -0.05,3.749 0.05,4.598 0.15,0.85 0.15,2.249 0.05,4.249 0.1,0 0.2,0 0.35,0.05 1.599,0.35 3.898,1 6.947,2 1.299,0.45 2.249,0.75 2.799,0.899 0.2,0.05 0.35,0.1 0.45,0.1 l 0.05,-0.4 0.05,-1.999 c 0.05,-3.849 0.15,-6.748 0.25,-8.647 0.05,-0.95 0.1,-2.849 0.2,-5.748 0.1,-3.199 0.25,-7.597 0.4,-13.195 0.25,-10.746 1.2,-24.29 2.849,-40.633 1.45,-14.194 2.25,-21.691 2.349,-22.491 l 0.45,-7.047 c 0,-0.799 0,-2.749 -0.05,-5.897 -0.1,-3.149 -0.05,-5.148 0.2,-6.098 l -2.299,0.2 c 0,-0.75 -0.05,-1.349 -0.2,-1.799 -0.2,-0.55 -0.35,-1.05 -0.4,-1.5 -13.745,1 -20.942,1.5 -21.591,1.549 l 0.4,3.299 c 0.202,-0.15 0.651,-0.25 1.401,-0.35 l 0,0 z m 5.948,6.248 c -0.4,0 0.55,-0.1 2.899,-0.25 0.45,-0.05 0.85,-0.05 1.299,-0.1 1.85,-0.15 4.749,-0.3 8.647,-0.45 0.2,4.298 0.35,6.747 0.399,7.297 0.05,0.6 -0.85,0.8 -2.799,0.55 -1.949,-0.25 -3.249,-0.35 -3.998,-0.2 -0.75,0.15 -1.35,0.2 -1.75,0.05 -0.15,-0.05 -0.45,-0.05 -0.899,0 -0.65,0 -1.75,-0.1 -3.199,-0.25 -0.15,-1.05 -0.3,-1.899 -0.45,-2.549 -0.15,-0.7 -0.2,-1.25 -0.25,-1.699 l 0.101,-2.399 0,0 z m 1.749,37.485 c 0,-0.05 0,-0.05 0,-0.1 0.25,-0.7 0.5,-0.799 0.75,-0.3 0.3,0.6 0.2,3.599 -0.25,8.946 -0.45,5.348 -0.75,9.746 -0.85,13.295 -0.15,3.849 -0.15,6.098 0,6.697 l -2.399,-0.05 0.05,-1.799 c 0,-0.05 0.35,-4.548 1.049,-13.495 0.5,-6.348 1,-10.546 1.449,-12.645 0.05,-0.15 0.05,-0.25 0.1,-0.4 0,-0.05 0,-0.05 0.05,-0.05 l 0,-0.05 c 0.001,-0.049 0.001,-0.049 0.051,-0.049 l 0,0 z" /><path
     style="fill:#7b7b7b"
     inkscape:connector-curvature="0"
     id="path117"
     d="m 133.347,20.221 c -2.349,0.15 -3.299,0.25 -2.899,0.25 l -0.1,2.399 c 0.05,0.45 0.1,1 0.25,1.699 0.15,0.65 0.3,1.5 0.45,2.549 1.449,0.15 2.549,0.25 3.199,0.25 0.45,-0.05 0.75,-0.05 0.899,0 0.4,0.15 1,0.1 1.75,-0.05 0.75,-0.15 2.049,-0.05 3.998,0.2 1.949,0.25 2.849,0.05 2.799,-0.55 -0.05,-0.55 -0.2,-2.999 -0.399,-7.297 -3.898,0.15 -6.797,0.3 -8.647,0.45 -0.451,0.05 -0.851,0.05 -1.3,0.1 l 0,0 z" /><path
     style="fill:#7b7b7b"
     inkscape:connector-curvature="0"
     id="path119"
     d="m 132.197,57.956 c -0.05,0 -0.05,0 -0.05,0.05 l 0,0.05 c -0.05,0 -0.05,0 -0.05,0.05 l 0,0.05 -0.05,0.2 0,0.15 c -0.05,0 -0.05,0 -0.05,0.05 l 0,-0.05 c -0.45,2.099 -0.949,6.297 -1.449,12.645 -0.7,8.946 -1.05,13.444 -1.05,13.495 l -0.05,1.799 2.399,0.05 c -0.15,-0.6 -0.15,-2.849 0,-6.697 0.1,-3.549 0.4,-7.947 0.85,-13.295 0.45,-5.348 0.55,-8.347 0.25,-8.946 -0.25,-0.5 -0.5,-0.4 -0.75,0.3 l 0,0.05 0,0.049 0,0 z" /><path
     style="fill:#7b7b7b"
     inkscape:connector-curvature="0"
     id="path121"
     d="m 155.45264,80.541482 c 0,0 -0.22409,4.207016 -0.26464,5.602518 -0.05,1.749 -0.05,5.947 -0.1,12.595 -0.05,6.647 -0.05,10.496 0,11.445 0,0.95 0,1.55 -0.05,1.899 -0.05,0.3 -0.1,1 -0.1,2.099 0,0.05 0,0.15 0.05,0.2 -0.05,0 -0.05,0 -0.05,0.05 l 0,0.25 0,0.1 c -0.05,0.1 -0.1,0.2 -0.1,0.25 0,0.05 0,0.15 0.05,0.2 -0.05,0.05 -0.05,0.1 -0.05,0.15 l 0,0.399 0.05,0 c -0.05,0.15 -0.05,0.3 -0.05,0.45 l 0.05,0 c -0.05,0.05 -0.1,0.1 -0.1,0.15 l 0.05,0.05 0,0.05 c 0,0.05 0.05,0.15 0.1,0.2 l 0.15,-0.15 0.4,-0.05 14.244,-3.649 1.2,-0.3 0.15,0 c 0.05,-0.05 0.05,-0.05 0.1,-0.05 l 0.2,0 c -0.05,-0.05 -0.05,-0.1 -0.05,-0.15 -0.05,-0.2 -0.05,-0.35 0,-0.45 -0.05,-0.25 -0.1,-0.6 -0.15,-0.949 l -0.05,-4.099 c 0,-1.849 -0.1,-4.598 -0.25,-8.347 -0.25,-5.348 -0.39121,-10.30951 -0.69121,-15.35651 l -0.27191,-3.52198 c -0.0977,-0.856302 -0.14802,-1.853231 -0.14802,-1.853231 -3.25956,0.35283 -4.55765,0.610009 -7.80771,1.172816 -3.25006,0.562807 -6.51051,1.613387 -6.51051,1.613387 z"
     sodipodi:nodetypes="ccsccscsccscsccccccsccccccsccccccccczc" /><path
     style="fill:#6a6a6a"
     inkscape:connector-curvature="0"
     id="path123"
     d="m 155.088,116.532 c 0.05,0 0.1,0 0.15,0 l 0.25,-0.05 -0.4,0.05 0,0 z" /><path
     style="fill:#7b7b7b"
     inkscape:connector-curvature="0"
     id="path125"
     d="m 130.098,108.186 c 0.2,-3.049 0.3,-5.548 0.35,-7.497 0.15,-5.148 -0.25,-8.197 -1.199,-9.046 -0.65,1.35 -1.2,4.249 -1.549,8.697 -0.15,1.599 -0.35,4.198 -0.6,7.847 -0.25,2.849 -0.5,6.248 -0.799,10.296 -0.05,0.15 0,0.95 0.1,2.299 0.85,0.55 1.899,0.9 3.049,1.1 0.05,0 0.05,0 0.1,0 0.1,0 0.2,0 0.35,0.05 0.1,-2 0.1,-3.399 -0.05,-4.249 -0.1,-0.85 -0.1,-2.349 -0.05,-4.598 0.148,-1.751 0.248,-3.4 0.298,-4.899 l 0,0 z" /><path
     style="fill:#cdcbcc"
     inkscape:connector-curvature="0"
     id="path127"
     d="m 401.889,9.725 0,-0.05 -7.097,0.05 c -2.749,0.1 -7.197,0.35 -13.445,0.799 -6.197,0.45 -9.796,0.7 -10.846,0.75 l 0.101,2.399 c 0,0.55 0.199,0.8 0.649,0.85 0.45,0.05 1.649,-0.1 3.698,-0.4 -0.25,8.997 -0.35,14.744 -0.35,17.193 0,0.15 0,0.25 -0.05,0.4 0,0.25 0,0.4 0.05,0.45 -0.05,0.15 -0.05,0.2 -0.05,0.25 -0.05,0.1 -0.05,0.2 -0.05,0.3 -1.899,7.947 -3.549,17.243 -4.898,27.839 -0.649,5.148 -1.249,10.646 -1.799,16.443 -0.65,6.747 -1.45,17.143 -2.3,31.188 -0.149,1.999 -0.249,4.048 -0.399,6.197 l -0.05,0.25 27.289,6.797 c 3.549,0.85 5.697,1.399 6.348,1.649 0.649,0.25 4.098,0.9 10.396,1.949 l 0,-2.199 c -0.05,-3.848 -0.15,-6.747 -0.25,-8.646 -0.05,-0.95 -0.1,-2.949 -0.2,-5.998 -0.1,-3.148 -0.25,-7.497 -0.399,-12.945 -0.25,-10.746 -1.199,-24.291 -2.849,-40.634 -1.45,-14.194 -2.249,-21.691 -2.35,-22.491 l -0.449,-7.047 c 0,-0.8 0,-2.749 0.05,-5.898 0.1,-3.148 0.05,-5.147 -0.2,-6.097 l 2.999,0.25 c 0.05,-0.399 0.05,-1.499 -0.05,-3.349 -1.149,-0.049 -2.3,-0.149 -3.499,-0.249 z m -2.549,16.243 c -0.6,-0.05 -1.199,-0.05 -1.799,-0.1 -0.551,-0.05 -1.1,-0.1 -1.649,-0.15 -0.15,-0.05 -1.3,-0.05 -3.499,0 l 0,0.05 -11.346,0 c -1.699,0.3 -2.599,0.4 -2.648,0.25 l -0.05,-0.1 -0.15,-5.298 2.949,-0.05 0,0.1 c 0.05,-0.05 0.149,-0.05 0.249,-0.05 3.749,-0.15 7.197,-0.3 10.246,-0.35 l 7.447,0.05 c 0.451,3.15 0.5,5.049 0.25,5.648 z"
     sodipodi:nodetypes="ccccccscsccccccccccccccccccccccccccccccccccccccccc" /><path
     style="fill:#999999"
     inkscape:connector-curvature="0"
     id="path129"
     d="m 397.542,25.869 c 0.6,0.05 1.199,0.05 1.799,0.1 0.25,-0.6 0.2,-2.499 -0.25,-5.647 l -7.447,-0.05 c -3.049,0.05 -6.497,0.2 -10.246,0.35 -0.1,0 -0.199,0 -0.249,0.05 l 0,-0.1 -2.949,0.05 0.15,5.298 0.05,0.1 c 0.05,0.15 0.949,0.05 2.648,-0.25 l 11.346,0 0,-0.05 c 2.199,-0.05 3.349,-0.05 3.499,0 0.549,0.049 1.098,0.098 1.649,0.149 l 0,0 z" /><path
     style="fill:#999999"
     inkscape:connector-curvature="0"
     id="path133"
     d="m 402.439,13.074 c 0.25,0.95 0.3,2.949 0.2,6.097 -0.05,3.149 -0.05,5.098 -0.05,5.898 l 0.449,7.047 c 0.101,0.799 0.899,8.296 2.35,22.491 1.649,16.343 2.599,29.888 2.849,40.634 0.149,5.448 0.3,9.796 0.399,12.945 0.101,3.049 0.15,5.048 0.2,5.998 0.1,1.899 0.2,4.798 0.25,8.646 l 0,2.199 c 0.15,-0.05 0.35,-0.1 0.5,-0.1 l 2.499,-0.8 c 1.05,-0.3 2.349,-0.649 3.798,-1 2.449,-0.649 3.749,-0.95 3.849,-0.95 0,-0.05 0,-0.05 0.05,-0.05 0.051,-0.5 0.101,-1.5 0.051,-2.999 -0.051,-1.649 -0.15,-4.348 -0.301,-8.196 -0.05,-0.9 -0.05,-1.799 -0.1,-2.749 -0.149,-2.949 -0.3,-5.948 -0.35,-8.997 -0.1,-3.999 0.35,-6.447 1.3,-7.297 0.649,1.35 1.149,3.798 1.449,7.397 0.199,2.699 0.399,5.648 0.6,8.896 0.05,1.1 0.149,2.249 0.2,3.398 0.3,4.548 0.499,7.797 0.6,9.646 3.849,-1.25 5.598,-1.75 5.147,-1.55 -0.449,0.15 1.649,-0.5 6.298,-1.949 -0.45,-4.148 -0.8,-7.147 -0.949,-8.896 0,-0.2 0,-0.4 -0.051,-0.65 -0.149,-1.649 -0.3,-3.599 -0.5,-5.798 -0.149,-2.499 -0.399,-4.898 -0.749,-7.197 -0.35,-2.399 -0.95,-7.497 -1.899,-15.244 -0.899,-7.797 -1.899,-14.944 -2.949,-21.391 -0.85,-5.298 -1.949,-12.445 -3.198,-21.392 -0.3,-1.949 -0.6,-3.999 -0.899,-6.147 -0.2,-1.949 -0.45,-4.748 -0.7,-8.347 -0.05,-0.45 -0.05,-0.95 -0.1,-1.45 -0.3,-4.348 -0.55,-6.547 -0.7,-6.697 0.25,-0.05 0.55,-0.05 0.8,-0.1 1,-0.1 1.8,-0.1 2.35,0.05 0.749,0.1 1.199,0.2 1.399,0.35 l 0.399,-3.298 c -0.25,0 -1.649,-0.1 -4.148,-0.25 -3.549,-0.25 -9.346,-0.7 -17.393,-1.3 0.1,1.85 0.1,2.949 0.05,3.349 l -3,-0.247 0,0 z m 12.545,7.297 c 0.45,0.05 0.85,0.05 1.3,0.1 2.349,0.15 3.299,0.25 2.898,0.25 l 0.101,2.399 c -0.051,0.45 -0.101,1 -0.25,1.699 -0.15,0.65 -0.3,1.5 -0.45,2.549 -1.449,0.15 -2.549,0.25 -3.198,0.25 -0.45,-0.05 -0.75,-0.05 -0.9,0 -0.399,0.15 -0.999,0.1 -1.749,-0.05 -0.75,-0.15 -2.049,-0.05 -3.998,0.2 -1.949,0.25 -2.85,0.05 -2.799,-0.55 0.05,-0.55 0.199,-2.999 0.399,-7.297 3.898,0.15 6.797,0.3 8.646,0.45 l 0,0 z m 2.549,37.984 c 0.05,0.15 0.05,0.25 0.101,0.4 0.449,2.099 0.949,6.297 1.449,12.645 0.699,8.946 1.05,13.444 1.05,13.495 l 0.05,1.799 -2.399,0.05 c 0.15,-0.6 0.15,-2.849 0,-6.697 -0.1,-3.549 -0.399,-7.947 -0.85,-13.295 -0.449,-5.348 -0.55,-8.347 -0.25,-8.946 0.15,-0.4 0.351,-0.4 0.6,0 0.051,0.1 0.15,0.25 0.2,0.4 l 0,0.1 c 0.049,0 0.049,0 0.049,0.049 l 0,0 z" /><path
     style="fill:#7b7b7b"
     inkscape:connector-curvature="0"
     id="path135"
     d="m 416.284,20.471 c -0.45,-0.05 -0.85,-0.05 -1.3,-0.1 -1.849,-0.15 -4.748,-0.3 -8.646,-0.45 -0.2,4.298 -0.35,6.747 -0.399,7.297 -0.051,0.6 0.85,0.8 2.799,0.55 1.949,-0.25 3.248,-0.35 3.998,-0.2 0.75,0.15 1.35,0.2 1.749,0.05 0.15,-0.05 0.45,-0.05 0.9,0 0.649,0 1.749,-0.1 3.198,-0.25 0.15,-1.05 0.3,-1.899 0.45,-2.549 0.149,-0.7 0.199,-1.25 0.25,-1.699 l -0.101,-2.399 c 0.401,0 -0.55,-0.1 -2.898,-0.25 l 0,0 z" /><path
     style="fill:#7b7b7b"
     inkscape:connector-curvature="0"
     id="path137"
     d="m 417.583,58.755 0,-0.15 -0.05,-0.2 0,-0.05 c 0,-0.05 0,-0.05 -0.05,-0.05 l 0,-0.1 c -0.05,-0.15 -0.149,-0.3 -0.2,-0.4 -0.249,-0.4 -0.449,-0.4 -0.6,0 -0.3,0.6 -0.2,3.599 0.25,8.946 0.45,5.348 0.75,9.746 0.85,13.295 0.15,3.849 0.15,6.098 0,6.697 l 2.399,-0.05 -0.05,-1.799 c 0,-0.05 -0.351,-4.548 -1.05,-13.495 -0.5,-6.348 -1,-10.546 -1.449,-12.645 l 0,0.05 c 0,-0.049 0,-0.049 -0.05,-0.049 l 0,0 z" /><path
     style="fill:#7b7b7b"
     inkscape:connector-curvature="0"
     id="path139"
     d="m 422.431,108.186 c -0.2,-3.249 -0.4,-6.197 -0.6,-8.896 -0.3,-3.599 -0.8,-6.047 -1.45,-7.397 -0.949,0.85 -1.398,3.299 -1.299,7.297 0.05,3.049 0.2,6.048 0.35,8.997 0.05,0.95 0.05,1.849 0.1,2.749 0.15,3.848 0.25,6.547 0.301,8.197 0.05,1.499 0,2.499 -0.051,2.999 l 0.3,0 c 0.051,-0.05 0.55,-0.2 1.45,-0.5 0.899,-0.3 1.449,-0.45 1.699,-0.399 -0.101,-1.85 -0.3,-5.098 -0.6,-9.646 -0.05,-1.152 -0.15,-2.302 -0.2,-3.401 l 0,0 z" /><path
     style="fill:#cdcbcc"
     inkscape:connector-curvature="0"
     id="path141"
     d="m 378.949,26.668 c 0.25,-0.15 0.149,-0.3 -0.25,-0.45 -0.45,-0.15 -0.5,-0.45 -0.25,-0.85 l -0.15,0.05 -0.05,-3.898 c -66.623,57.627 -135.496,57.527 -206.517,-0.3 -0.05,-0.05 0.05,0.35 0.2,1.1 0.15,0.75 0.05,1.15 -0.25,1.25 -0.35,0.1 -0.3,0.6 0.15,1.449 0.399,0.85 -0.05,1.2 -1.3,1.05 0.35,0.05 0.75,0.1 1.15,0.2 l 0,0.05 -0.05,0.2 c 72.021,55.328 141.094,55.328 207.117,0 0.05,-0.05 0.05,-0.05 0.1,-0.1 l 0.1,0.249 0,0 z" /><path
     style="fill:#cdcbcc"
     inkscape:connector-curvature="0"
     id="path143"
     d="m 394.292,25.968 c -1.6,0 -2.999,-0.05 -4.248,-0.15 -72.722,59.926 -149.541,59.926 -230.508,0 -1.799,0.35 -4.098,0.55 -6.947,0.55 -0.75,0 -1.399,-0.05 -1.999,-0.2 l 3.849,2.049 c 84.316,61.175 164.833,61.325 241.454,0.5 0.1,-0.1 0.249,-0.15 0.399,-0.15 1.149,-1.2 1.899,-1.949 2.249,-2.199 -0.399,0.05 -1.1,0.1 -2.099,0.1 -0.45,0 -0.75,-0.15 -0.95,-0.5 -0.4,0 -0.8,0 -1.2,0 l 0,0 z" /><path
     style="fill:#7b7b7b"
     inkscape:connector-curvature="0"
     id="path111"
     d="m 161.76534,31.833881 c -2.69962,0.04045 -5.0295,0.125614 -5.0295,0.125614 0,0 -0.74548,8.367936 -1.22047,16.754886 -0.0527,3.228735 -0.22837,8.091614 -0.37837,13.539614 -0.15,3.849 -0.1,6.597 0.05,8.197 l 0.1,0.25 0,0.15 c 4.048,-0.9 7.047,-1.549 8.996,-1.899 0.1,-0.05 0.2,-0.05 0.3,-0.05 l 1.549,-0.25 c 1.25,-0.25 2.399,-0.4 3.448,-0.55 -0.0929,-8.778082 -0.45786,-15.648637 -0.90611,-20.889966 -0.63369,-7.409798 -1.66825,-15.46094 -1.66825,-15.46094 0,0 -2.54069,0.04234 -5.2403,0.08279 z"
     sodipodi:nodetypes="zccccccccccscz" /><path
     style="fill:#7b7b7b;fill-opacity:1;fill-rule:evenodd;stroke:none;stroke-width:1px;stroke-linecap:butt;stroke-linejoin:miter;stroke-opacity:1"
     d="m 372.66027,114.69466 26.72534,7.73628 c 0,0 -0.0632,-3.81696 -0.10833,-5.6628 -0.0604,-2.46779 -0.23799,-5.06783 -0.23799,-5.06783 0,0 -5.5438,-1.13753 -8.0493,-1.75292 -2.5055,-0.61538 -9.21568,-3.12363 -9.21568,-3.12363 0,0 0.84203,-22.636504 1.63805,-33.954756 0.79602,-11.318251 2.91291,-33.673331 2.91291,-33.673331 0,0 -2.24695,-0.208701 -3.48299,-0.313052 -1.23604,-0.10435 -3.76441,-0.144197 -3.76441,-0.144197 0,0 -2.6392,21.068745 -3.9588,37.478118 -1.3196,16.409373 -2.4588,38.478118 -2.4588,38.478118 z"
     id="path4355"
     inkscape:connector-curvature="0"
     sodipodi:nodetypes="ccscsczcsczc" /></svg>